<?xml version="1.0" encoding="utf-8"?>
<!-- Generator: Adobe Illustrator 16.0.0, SVG Export Plug-In . SVG Version: 6.00 Build 0)  -->
<!DOCTYPE svg PUBLIC "-//W3C//DTD SVG 1.1//EN" "http://www.w3.org/Graphics/SVG/1.1/DTD/svg11.dtd">
<svg version="1.1" id="Layer_1" xmlns="http://www.w3.org/2000/svg" xmlns:xlink="http://www.w3.org/1999/xlink" x="0px" y="0px"
	 width="245.951px" height="277.356px" viewBox="0 0 245.951 277.356" enable-background="new 0 0 245.951 277.356"
	 xml:space="preserve">
<g>
	<path fill="#FFFFFF" d="M56.602,124.897c-3.501,2.703-6.44,4.974-9.863,7.617c4.208,1.35,7.748,2.485,11.813,3.789
		c-2.953,3.208-5.481,5.956-8.377,9.104c4.382,0.628,8.062,1.156,12.254,1.757c-2.298,3.724-4.222,6.84-6.287,10.187
		c4.316,0,7.924,0,12.061,0c-1.554,3.786-2.962,7.219-4.589,11.184c4.202-0.834,7.831-1.554,11.995-2.38
		c-0.905,4.303-1.657,7.877-2.53,12.028c4.171-1.75,7.595-3.187,11.521-4.833c-0.216,4.47-0.393,8.12-0.603,12.462
		c3.982-2.47,7.104-4.407,10.543-6.539c0.626,4.49,1.132,8.11,1.732,12.416c3.392-3.211,6.089-5.765,9.105-8.62
		c1.349,4.411,2.443,7.993,3.729,12.2c2.761-3.592,5.033-6.548,7.659-9.965c2.054,3.967,3.785,7.314,5.743,11.098
		c2.043-3.819,3.857-7.21,5.868-10.969c2.702,3.439,4.962,6.315,7.627,9.708c1.37-4.388,2.438-7.807,3.722-11.918
		c3.16,2.946,5.893,5.492,9.162,8.54c0.635-4.437,1.171-8.177,1.778-12.424c3.767,2.397,6.773,4.31,10.323,6.569
		c0-4.534,0-8.109,0-12.144c3.733,1.48,7.061,2.799,10.971,4.349c-0.801-4.201-1.488-7.812-2.264-11.881
		c4.252,0.858,7.777,1.569,11.832,2.388c-1.629-3.983-3.038-7.429-4.631-11.32c4.184,0,7.865,0,12.059,0
		c-2.17-3.488-4.053-6.515-6.29-10.109c4.266-0.619,7.926-1.15,12.226-1.773c-2.945-3.21-5.472-5.963-8.375-9.125
		c4.147-1.324,7.69-2.456,11.818-3.773c-3.493-2.723-6.428-5.01-9.717-7.573c3.844-2.067,7.137-3.839,10.854-5.839
		c-3.854-2.014-7.193-3.761-10.949-5.724c3.403-2.644,6.336-4.921,9.794-7.607c-4.286-1.376-7.817-2.511-11.847-3.806
		c2.998-3.212,5.553-5.947,8.491-9.097c-4.409-0.641-8.084-1.176-12.276-1.785c2.268-3.669,4.215-6.817,6.298-10.187
		c-4.308,0-8.015,0-12.167,0c1.654-3.887,3.106-7.3,4.775-11.223c-4.299,0.894-7.924,1.646-12.133,2.521
		c0.896-4.262,1.631-7.755,2.5-11.891c-4.07,1.585-7.469,2.908-11.281,4.395c0-4.467,0-8.132,0-12.007
		c-3.503,2.174-6.645,4.125-10.179,6.319c-0.602-4.379-1.089-7.922-1.663-12.101c-3.268,2.909-6.047,5.384-9.229,8.216
		c-1.281-4.155-2.379-7.713-3.655-11.85c-2.724,3.506-5.016,6.458-7.621,9.813c-2.034-3.796-3.792-7.076-5.776-10.778
		c-2.066,3.81-3.836,7.073-5.83,10.75c-2.703-3.453-4.958-6.335-7.592-9.7c-1.354,4.241-2.445,7.656-3.728,11.67
		c-3.208-2.861-5.989-5.341-9.146-8.156c-0.658,4.284-1.218,7.931-1.848,12.032c-3.649-2.243-6.704-4.121-10.242-6.295
		c0,4.271,0,7.946,0,12.009c-3.809-1.521-7.233-2.89-11.122-4.443c0.89,4.303,1.611,7.795,2.473,11.963
		c-4.295-0.896-7.867-1.64-12.039-2.51c1.772,4.213,3.203,7.612,4.811,11.431c-4.492,0-8.145,0-12.209,0
		c2.205,3.48,4.111,6.487,6.321,9.976c-4.374,0.644-7.98,1.174-12.279,1.806c3.113,3.406,5.595,6.122,8.41,9.202
		c-4.32,1.325-7.781,2.387-12.001,3.681c3.614,2.72,6.595,4.961,10.124,7.617c-3.937,2.048-7.246,3.77-11.126,5.788
		C49.382,121.14,52.597,122.813,56.602,124.897z M120.971,200.31c-10.99-0.324-21.06-2.034-30.122-8.812
		c-4.818,13.638-9.369,26.521-14.172,40.115c5.51-0.878,10.207-1.871,14.955-2.258c1.823-0.148,4.232,0.574,5.55,1.792
		c3.096,2.861,5.693,6.261,9.138,10.177C111.481,226.874,116.061,214.054,120.971,200.31z M168.452,231.67
		c-4.886-13.808-9.452-26.712-14.298-40.405c-8.956,7.329-19.197,8.532-29.942,9.12c4.846,13.588,9.456,26.512,14.312,40.127
		c2.947-2.995,5.689-5.414,7.975-8.207c2.386-2.915,4.946-3.877,8.667-2.928C159.147,230.393,163.284,230.809,168.452,231.67z"/>
	<path fill-rule="evenodd" clip-rule="evenodd" d="M56.602,124.897c-4.005-2.084-7.22-3.757-11.071-5.76
		c3.88-2.019,7.189-3.74,11.126-5.788c-3.529-2.656-6.51-4.897-10.124-7.617c4.22-1.294,7.681-2.355,12.001-3.681
		c-2.815-3.08-5.297-5.796-8.41-9.202c4.299-0.632,7.905-1.162,12.279-1.806c-2.21-3.488-4.116-6.495-6.321-9.976
		c4.064,0,7.717,0,12.209,0c-1.607-3.818-3.038-7.218-4.811-11.431c4.172,0.87,7.744,1.614,12.039,2.51
		c-0.861-4.168-1.583-7.66-2.473-11.963c3.889,1.554,7.313,2.922,11.122,4.443c0-4.062,0-7.738,0-12.009
		c3.538,2.174,6.593,4.052,10.242,6.295c0.63-4.101,1.189-7.748,1.848-12.032c3.157,2.815,5.938,5.295,9.146,8.156
		c1.282-4.014,2.373-7.429,3.728-11.67c2.634,3.365,4.889,6.247,7.592,9.7c1.994-3.677,3.764-6.94,5.83-10.75
		c1.984,3.702,3.742,6.982,5.776,10.778c2.605-3.355,4.897-6.307,7.621-9.813c1.276,4.137,2.374,7.694,3.655,11.85
		c3.182-2.833,5.961-5.307,9.229-8.216c0.574,4.178,1.062,7.721,1.663,12.101c3.534-2.194,6.676-4.145,10.179-6.319
		c0,3.875,0,7.54,0,12.007c3.812-1.486,7.211-2.81,11.281-4.395c-0.869,4.136-1.604,7.629-2.5,11.891
		c4.209-0.875,7.834-1.628,12.133-2.521c-1.669,3.923-3.121,7.336-4.775,11.223c4.152,0,7.859,0,12.167,0
		c-2.083,3.369-4.03,6.518-6.298,10.187c4.192,0.609,7.867,1.145,12.276,1.785c-2.938,3.149-5.493,5.885-8.491,9.097
		c4.029,1.295,7.561,2.43,11.847,3.806c-3.458,2.687-6.391,4.964-9.794,7.607c3.756,1.963,7.096,3.71,10.949,5.724
		c-3.717,2-7.01,3.771-10.854,5.839c3.289,2.563,6.224,4.851,9.717,7.573c-4.128,1.317-7.671,2.449-11.818,3.773
		c2.903,3.162,5.43,5.915,8.375,9.125c-4.3,0.623-7.96,1.154-12.226,1.773c2.237,3.595,4.12,6.621,6.29,10.109
		c-4.193,0-7.875,0-12.059,0c1.593,3.892,3.002,7.337,4.631,11.32c-4.055-0.818-7.58-1.529-11.832-2.388
		c0.775,4.069,1.463,7.68,2.264,11.881c-3.91-1.55-7.237-2.868-10.971-4.349c0,4.034,0,7.609,0,12.144
		c-3.55-2.26-6.557-4.172-10.323-6.569c-0.607,4.247-1.144,7.987-1.778,12.424c-3.27-3.048-6.002-5.594-9.162-8.54
		c-1.283,4.111-2.352,7.53-3.722,11.918c-2.665-3.393-4.925-6.269-7.627-9.708c-2.011,3.759-3.825,7.149-5.868,10.969
		c-1.958-3.783-3.689-7.131-5.743-11.098c-2.626,3.417-4.898,6.373-7.659,9.965c-1.286-4.207-2.381-7.789-3.729-12.2
		c-3.017,2.855-5.714,5.409-9.105,8.62c-0.601-4.306-1.106-7.926-1.732-12.416c-3.438,2.132-6.561,4.069-10.543,6.539
		c0.21-4.342,0.387-7.992,0.603-12.462c-3.926,1.646-7.35,3.083-11.521,4.833c0.873-4.151,1.625-7.726,2.53-12.028
		c-4.164,0.826-7.793,1.546-11.995,2.38c1.627-3.965,3.035-7.397,4.589-11.184c-4.137,0-7.744,0-12.061,0
		c2.065-3.347,3.989-6.463,6.287-10.187c-4.191-0.601-7.872-1.129-12.254-1.757c2.896-3.147,5.424-5.896,8.377-9.104
		c-4.065-1.304-7.605-2.439-11.813-3.789C50.161,129.871,53.101,127.6,56.602,124.897z M182.935,119.319
		c0.039-33.235-26.971-60.418-60.221-60.606c-32.967-0.188-60.591,27.256-60.656,60.259c-0.066,33.31,27.358,60.636,60.811,60.591
		C155.697,179.518,182.896,152.24,182.935,119.319z"/>
	<path fill-rule="evenodd" clip-rule="evenodd" d="M120.971,200.31c-4.91,13.744-9.489,26.563-14.651,41.014
		c-3.444-3.916-6.042-7.315-9.138-10.177c-1.317-1.218-3.727-1.94-5.55-1.792c-4.748,0.387-9.445,1.38-14.955,2.258
		c4.803-13.594,9.354-26.478,14.172-40.115C99.911,198.276,109.98,199.986,120.971,200.31z"/>
	<path fill-rule="evenodd" clip-rule="evenodd" d="M168.452,231.67c-5.168-0.861-9.305-1.277-13.287-2.293
		c-3.721-0.949-6.281,0.013-8.667,2.928c-2.285,2.793-5.027,5.212-7.975,8.207c-4.855-13.615-9.466-26.539-14.312-40.127
		c10.745-0.588,20.986-1.791,29.942-9.12C159,204.958,163.566,217.863,168.452,231.67z"/>
	<path fill-rule="evenodd" clip-rule="evenodd" fill="#FFFFFF" d="M182.935,119.319c-0.038,32.921-27.237,60.199-60.066,60.243
		c-33.452,0.045-60.877-27.281-60.811-60.591c0.065-33.003,27.689-60.446,60.656-60.259
		C155.964,58.901,182.974,86.083,182.935,119.319z M122.354,173.786c30.213,0.161,54.678-24.149,54.781-54.437
		c0.104-30.146-23.898-54.537-53.903-54.774c-30.658-0.243-55.244,23.934-55.311,54.39
		C67.856,149.269,92.038,173.625,122.354,173.786z"/>
	<path fill-rule="evenodd" clip-rule="evenodd" d="M122.354,173.786c-30.316-0.161-54.498-24.517-54.433-54.821
		c0.066-30.456,24.652-54.633,55.311-54.39c30.005,0.237,54.007,24.628,53.903,54.774
		C177.032,149.636,152.567,173.947,122.354,173.786z M170.211,119.531c0.207-26.358-20.925-47.875-47.166-48.023
		c-26.513-0.149-47.931,20.757-48.169,47.02c-0.242,26.638,20.905,48.186,47.415,48.312
		C148.644,166.964,170.003,145.877,170.211,119.531z"/>
	<path fill-rule="evenodd" clip-rule="evenodd" d="M119.152,110.25c-2.839,0.713-5.045,1.267-7.27,1.825
		c-0.701-2.239-2.172-6.728-2.172-6.728s14.585-7.128,19.905-7.128c0,8.986,0,19.367,0,29.148c2.918,0.166,5.345,0.305,8.186,0.467
		c0,2.412,0,4.791,0,7.509c-8.887,0-17.932,0-27.236,0c0-2.481,0-4.737,0-7.426c2.93-0.219,5.806-0.435,8.587-0.643
		C119.152,121.469,119.152,115.995,119.152,110.25z"/>
	<polygon fill-rule="evenodd" clip-rule="evenodd" points="120.444,148.74 123.154,142.022 126.839,148.259 134.065,148.759 
		129.272,154.191 131.028,161.219 124.382,158.337 118.239,162.18 118.926,154.969 113.374,150.316 	"/>
</g>
</svg>
