<?xml version="1.0" encoding="utf-8"?>
<!-- Generator: Adobe Illustrator 16.0.0, SVG Export Plug-In . SVG Version: 6.00 Build 0)  -->
<!DOCTYPE svg PUBLIC "-//W3C//DTD SVG 1.1//EN" "http://www.w3.org/Graphics/SVG/1.1/DTD/svg11.dtd">
<svg version="1.1" id="Layer_1" xmlns="http://www.w3.org/2000/svg" xmlns:xlink="http://www.w3.org/1999/xlink" x="0px" y="0px"
	 width="1165.871px" height="245.549px" viewBox="0 0 1165.871 245.549" enable-background="new 0 0 1165.871 245.549"
	 xml:space="preserve">
<g>
	<path fill-rule="evenodd" clip-rule="evenodd" fill="#DC4E4F" d="M121.006,24.285c2.555,1.862,5.427,3.178,8.177,4.695
		c27.68,15.279,55.375,30.528,83.061,45.798c0.58,0.32,1.298,0.484,1.658,1.199c-0.329,0.684-1.04,0.848-1.627,1.154
		c-10.972,5.741-21.958,11.456-32.91,17.233c-1.296,0.684-2.295,0.707-3.613-0.021c-13.333-7.362-26.665-14.729-40.1-21.903
		c-3.157-1.686-5.444-3.823-6.903-7.066c-1.069-2.378-2.45-4.618-3.726-6.9c-1.713-3.062-4.846-3.405-6.81-0.548
		c-1.956,2.845-3.914,5.731-5.332,8.896c-1.085,2.422-2.665,4.301-4.972,5.563C95.02,79.44,82.125,86.482,69.239,93.54
		c-0.852,0.467-1.582,0.675-2.573,0.182c-12.183-6.073-24.392-12.096-36.591-18.137c-0.119-0.059-0.197-0.198-0.31-0.317
		c0.473-0.777,1.343-0.997,2.062-1.396c28.925-16.048,57.86-32.077,86.784-48.127c0.697-0.387,1.649-0.501,1.933-1.46
		C120.698,24.285,120.852,24.285,121.006,24.285z"/>
	<path fill-rule="evenodd" clip-rule="evenodd" fill="#832C2D" d="M129.322,230.335c0.145-12.075,0.322-24.151,0.387-36.228
		c0.007-1.416,0.675-2.048,1.644-2.742c8.257-5.912,16.497-11.847,24.742-17.773c2.436-1.752,4.879-3.494,7.308-5.256
		c2.104-1.525,4.342-2.527,7.043-2.44c2.146,0.069,4.3-0.185,6.453-0.206c1.208-0.012,2.261-0.373,3.253-1
		c2.352-1.485,2.805-3.269,1.339-5.67c-1.203-1.968-2.398-3.958-3.804-5.779c-1.756-2.277-1.971-4.716-1.472-7.412
		c1.217-6.576,2.314-13.175,3.569-19.743c0.25-1.307-0.009-1.955-1.209-2.492c-1.54-0.689-3.023-1.521-4.479-2.382
		c-3.506-2.073-3.721-5.221-0.546-7.816c0.59-0.482,1.284-0.841,1.943-1.234c10.313-6.148,21.163-11.284,31.778-16.863
		c3.879-2.039,7.78-4.035,11.677-6.041c0.586-0.302,1.138-0.744,2.062-0.691c-0.165,0.91-0.28,1.727-0.462,2.527
		c-5.787,25.327-11.595,50.65-17.343,75.986c-0.413,1.819-1.207,3.137-2.662,4.344c-22.743,18.861-45.443,37.775-68.133,56.701
		c-0.783,0.653-1.877,1.057-2.167,2.212C129.938,230.335,129.63,230.335,129.322,230.335z"/>
	<path fill-rule="evenodd" clip-rule="evenodd" fill="#832C2D" d="M115,230.335c-3.573-3.386-7.474-6.388-11.248-9.535
		c-19.913-16.61-39.848-33.194-59.802-49.755c-1.134-0.941-1.73-1.981-2.059-3.422c-5.888-25.854-11.833-51.697-17.761-77.543
		c-0.101-0.441-0.268-0.886-0.096-1.404c0.544-0.387,0.976,0.086,1.392,0.3c11.688,6.02,23.358,12.073,35.063,18.06
		c1.114,0.569,1.531,1.34,1.729,2.464c1.552,8.781,3.133,17.558,4.704,26.336c0.555,3.103,1.071,6.212,1.67,9.306
		c0.592,3.06,0.511,5.909-1.613,8.493c-1.214,1.477-2.135,3.194-3.181,4.808c-2.253,3.474-0.623,6.823,3.577,7.188
		c2.449,0.211,4.918,0.311,7.375,0.274c2.443-0.035,4.51,0.824,6.424,2.195c6.443,4.613,12.876,9.239,19.312,13.863
		c4.373,3.142,8.719,6.323,13.133,9.408c1.125,0.787,1.562,1.64,1.572,3.022c0.078,11.154,0.236,22.308,0.376,33.461
		c0.01,0.84-0.042,1.694,0.354,2.481C115.616,230.335,115.308,230.335,115,230.335z"/>
	<path fill-rule="evenodd" clip-rule="evenodd" fill="#DC4E4F" d="M156.639,108.319c-0.116,1.069-0.369,2.145-0.321,3.207
		c0.098,2.189-0.924,3.368-2.803,4.455c-9.786,5.66-19.491,11.461-29.185,17.277c-1.334,0.801-2.342,0.872-3.74,0.073
		c-10.284-5.874-20.606-11.681-30.96-17.432c-1.298-0.721-1.963-1.475-1.95-3.009c0.015-1.684-0.149-3.39-0.441-5.049
		c-0.293-1.668,0.426-2.455,1.808-3.217c6.868-3.788,13.681-7.677,20.512-11.532c3.416-1.929,6.858-3.812,10.227-5.82
		c1.15-0.686,2.019-0.618,3.169,0.009c10.404,5.657,20.826,11.282,31.286,16.835C156.045,105.075,157.453,105.987,156.639,108.319z"
		/>
	<path fill-rule="evenodd" clip-rule="evenodd" fill="#832C2D" d="M89.538,131.774c1.13,0.201,1.809,0.729,2.533,1.122
		c9.256,5.041,18.521,10.067,27.739,15.178c1.301,0.721,2.271,0.707,3.566,0.002c9.257-5.039,18.556-10,27.847-14.976
		c0.867-0.465,1.687-1.049,2.599-1.256c0.59,0.232,0.441,0.665,0.429,1.011c-0.228,7.075-0.485,14.149-0.687,21.226
		c-0.034,1.211-0.541,1.912-1.543,2.573c-9.313,6.146-18.601,12.332-27.86,18.56c-1.111,0.748-1.915,0.788-3.058,0.046
		c-9.491-6.155-19.023-12.247-28.544-18.355c-0.776-0.498-1.488-0.915-1.558-2.069c-0.441-7.296-0.968-14.588-1.461-21.882
		C89.52,132.651,89.538,132.346,89.538,131.774z"/>
</g>
<g>
	<path fill-rule="evenodd" clip-rule="evenodd" fill="#FFFFFF" d="M494.201,131.158c1.106-6.034,2.026-11.876,3.27-17.647
		c1.78-8.267,3.809-16.479,5.694-24.723c0.273-1.191,0.877-1.529,2.07-1.521c7.314,0.053,14.629,0.019,21.943,0.031
		c2.104,0.003,2.258-0.373,1.674,2.131c-2.605,11.154-5.236,22.302-7.865,33.45c-3.477,14.741-6.961,29.48-10.441,44.219
		c-0.492,2.088-0.494,2.094-2.697,2.095c-7.006,0.003-14.013-0.045-21.019,0.038c-1.473,0.017-2.146-0.5-2.693-1.814
		c-5.499-13.196-11.057-26.369-16.6-39.547c-0.322-0.767-0.67-1.522-1.234-2.799c-0.259,1.084-0.448,1.682-0.541,2.295
		c-2.035,13.477-5.374,26.676-8.498,39.919c-0.521,2.21-0.266,1.9-2.397,1.904c-7.314,0.013-14.629,0.007-21.943,0
		c-0.53-0.001-1.08,0.106-1.789-0.272c0.714-3.057,1.436-6.175,2.169-9.289c5.529-23.498,11.06-46.994,16.594-70.491
		c0.432-1.831,0.445-1.839,2.437-1.841c7.083-0.005,14.167,0.041,21.25-0.037c1.462-0.016,2.144,0.479,2.694,1.807
		c5.505,13.278,11.072,26.531,16.634,39.786C493.201,129.543,493.338,130.325,494.201,131.158z"/>
	<path fill-rule="evenodd" clip-rule="evenodd" fill="#FFFFFF" d="M223.229,168.837c2.416-10.245,4.817-20.407,7.209-30.57
		c3.838-16.307,7.67-32.615,11.508-48.922c0.479-2.039,0.487-2.049,2.502-2.05c13.084-0.004,26.168-0.059,39.251,0.026
		c5.232,0.034,10.456,0.445,15.487,2.086c1.164,0.38,2.323,0.814,3.423,1.352c6.083,2.972,8.662,8.081,7.641,14.77
		c-1.167,7.637-5.409,13.249-11.436,17.725c-1.095,0.812-2.235,1.565-3.444,2.407c0.383,0.188,0.58,0.307,0.791,0.387
		c6.97,2.619,9.312,8.954,8.486,15.22c-1.717,13.005-9.053,21.36-21.507,25.269c-5.469,1.717-11.111,2.402-16.826,2.523
		c-13.85,0.295-27.702,0.064-41.553,0.131C224.311,169.192,223.835,169.286,223.229,168.837z M254.6,149.946
		c4.23,0,8.14,0.002,12.049-0.003c0.767-0.001,1.543,0.035,2.299-0.062c1.29-0.167,2.596-0.321,3.844-0.667
		c4.225-1.169,6.466-3.834,6.983-8.147c0.262-2.185-0.675-3.957-2.665-4.878c-1.332-0.617-2.77-0.906-4.229-1.012
		c-4.522-0.323-9.052-0.1-13.578-0.185c-0.958-0.019-1.337,0.379-1.539,1.279C256.759,140.753,255.699,145.223,254.6,149.946z
		 M261.887,119.874c4.346,0,8.646,0.216,12.914-0.06c4.451-0.286,7.719-3.061,8.695-6.741c0.966-3.64-0.247-5.612-3.917-6.34
		c-0.524-0.104-1.063-0.182-1.597-0.186c-3.992-0.033-7.983-0.016-11.975-0.081c-0.977-0.016-1.306,0.393-1.503,1.269
		c-0.841,3.739-1.745,7.465-2.61,11.198C261.831,119.209,261.887,119.514,261.887,119.874z"/>
	<path fill-rule="evenodd" clip-rule="evenodd" fill="#FFFFFF" d="M688.803,169.082c2.504-10.663,4.945-21.056,7.389-31.447
		c3.766-16.014,7.531-32.026,11.303-48.038c0.541-2.299,0.557-2.301,2.787-2.302c13.012-0.002,26.023-0.062,39.033,0.027
		c5.771,0.04,11.533,0.456,17.127,2.092c1.777,0.52,3.492,1.182,5.115,2.081c3.906,2.168,6.133,5.47,6.746,9.895
		c1.408,10.145-4.887,22.49-13.945,27.22c-1.416,0.739-2.932,1.284-4.701,2.049c1.256,0.614,2.283,1.151,3.34,1.626
		c4.285,1.927,6.152,5.312,6.18,9.918c0.025,4.438-1.053,8.686-2.037,12.957c-0.621,2.695-1.43,5.356-1.674,8.124
		c-0.113,1.278-0.361,2.663,1.334,3.29c0.795,0.294,0.152,0.922,0.123,1.388c-0.031,0.528-0.074,1.129-0.803,1.2
		c-0.457,0.044-0.922,0.032-1.383,0.032c-7.777,0.001-15.553,0.005-23.328-0.002c-2.084-0.002-2.072-0.025-1.969-2.024
		c0.236-4.557,1.236-8.983,2.238-13.41c0.51-2.257,0.951-4.521,0.832-6.852c-0.146-2.83-1.289-4.363-3.975-5.31
		c-1.684-0.593-3.434-0.858-5.211-0.878c-3.156-0.035-6.314,0.022-9.469-0.065c-1.17-0.032-1.57,0.399-1.824,1.498
		c-1.934,8.39-3.936,16.763-5.92,25.141c-0.446,1.888-0.451,1.899-2.383,1.901c-7.854,0.005-15.707,0.003-23.559-0.003
		C689.791,169.189,689.412,169.131,688.803,169.082z M726.631,122.641c5.707-0.135,11.225,0.389,16.703-0.569
		c1.206-0.211,2.369-0.618,3.492-1.149c3.459-1.635,4.916-4.555,5.064-8.156c0.092-2.218-0.965-3.998-3.019-5.063
		c-1.675-0.868-3.464-1.222-5.339-1.218c-3.307,0.006-6.613,0.001-9.922,0.001c-3.164,0.001-3.18-0.003-3.928,3.142
		C728.672,113.876,727.688,118.131,726.631,122.641z"/>
	<path fill-rule="evenodd" clip-rule="evenodd" fill="#FFFFFF" d="M974.286,137.422c0.24,0.741-0.033,1.22-0.232,1.717
		c-6.465,16.176-17.852,26.868-34.98,30.854c-9.467,2.202-18.979,1.965-28.181-1.455c-11.084-4.121-16.937-12.364-17.922-24.023
		c-1.543-18.251,7.609-43.158,30.812-54.355c12.738-6.146,25.947-6.797,39.23-2.109c10.061,3.55,15.043,11.213,15.863,21.699
		c0.191,2.456,0.119,4.92-0.141,7.377c-0.102,0.948-0.334,1.486-1.516,1.478c-7.619-0.058-15.238-0.044-22.857-0.013
		c-1.016,0.004-1.359-0.303-1.25-1.333c0.104-0.986,0.086-2-0.002-2.991c-0.414-4.672-3.234-7.768-7.854-8.7
		c-6.117-1.235-11.221,0.646-15.486,5.06c-1.94,2.008-3.463,4.324-4.676,6.827c-3.084,6.366-4.873,13.095-5.402,20.144
		c-0.15,1.99-0.074,3.988,0.42,5.959c1.027,4.108,3.703,6.454,7.756,7.279c7.33,1.492,13.605-1.1,17.834-7.287
		c0.871-1.273,1.775-2.58,2.189-4.04c0.537-1.897,1.684-2.144,3.41-2.121c6.926,0.089,13.854,0.036,20.778,0.036
		C972.837,137.422,973.591,137.422,974.286,137.422z"/>
	<path fill-rule="evenodd" clip-rule="evenodd" fill="#FFFFFF" d="M771.484,169.024c2.688-4.53,5.234-8.823,7.781-13.117
		c13.149-22.157,26.316-44.305,39.412-66.493c0.934-1.581,1.918-2.196,3.777-2.168c7.621,0.115,15.244,0.045,22.867,0.051
		c2,0.001,2.031,0.011,2.268,1.931c0.988,8.018,1.949,16.039,2.936,24.057c1.145,9.316,2.307,18.63,3.457,27.945
		c1.123,9.086,2.242,18.173,3.355,27.26c0.018,0.143-0.061,0.297-0.094,0.451c-0.543,0.416-1.18,0.245-1.775,0.246
		c-7.623,0.012-15.244,0.012-22.867,0.005c-1.938-0.002-1.941-0.019-2.064-2.009c-0.148-2.457-0.336-4.914-0.414-7.375
		c-0.037-1.187-0.48-1.553-1.67-1.545c-7.852,0.048-15.705,0.055-23.559-0.007c-1.219-0.009-1.766,0.496-2.258,1.483
		c-1.371,2.752-2.871,5.44-4.225,8.201c-0.479,0.977-1.076,1.283-2.139,1.277c-7.93-0.044-15.859-0.025-23.789-0.031
		C772.27,169.186,772.055,169.119,771.484,169.024z M812.566,141.221c5.299,0,10.059,0.002,14.818-0.001
		c2.049-0.001,1.957,0.192,1.83-2.058c-0.477-8.43-0.975-16.857-1.48-25.285c-0.02-0.305,0.16-0.804-0.578-0.857
		C822.371,122.267,817.564,131.557,812.566,141.221z"/>
	<path fill-rule="evenodd" clip-rule="evenodd" fill="#FFFFFF" d="M1009.716,168.885c2.027-3.432,3.973-6.736,5.93-10.035
		c13.773-23.206,27.562-46.4,41.281-69.638c0.865-1.466,1.777-1.973,3.436-1.955c7.695,0.082,15.391,0.037,23.086,0.036
		c1.773,0,2-0.283,2.266,1.915c1.902,15.727,3.881,31.444,5.826,47.166c1.258,10.15,2.499,20.303,3.746,30.454
		c0.057,0.458,0.07,0.921,0.125,1.379c0.078,0.684-0.213,1.006-0.9,0.984c-0.307-0.01-0.615,0.002-0.924,0.002
		c-7.619,0-15.236,0.005-22.855-0.004c-1.988-0.002-1.99-0.022-2.111-2.03c-0.154-2.532-0.354-5.063-0.436-7.599
		c-0.033-1.021-0.422-1.293-1.387-1.289c-8.004,0.027-16.009,0.037-24.012-0.013c-1.04-0.007-1.486,0.435-1.902,1.265
		c-1.412,2.816-2.904,5.592-4.318,8.407c-0.418,0.831-0.883,1.291-1.916,1.286c-8.08-0.047-16.16-0.032-24.24-0.044
		C1010.278,169.172,1010.149,169.07,1009.716,168.885z M1067.46,141.135c-0.568-9.542-1.123-18.849-1.678-28.156
		c-0.141-0.027-0.283-0.055-0.424-0.081c-4.84,9.35-9.682,18.7-14.619,28.237C1056.478,141.135,1061.839,141.135,1067.46,141.135z"
		/>
	<path fill-rule="evenodd" clip-rule="evenodd" fill="#FFFFFF" d="M595.111,168.951c-0.021-0.804,0.568-1.371,0.939-1.997
		c15.367-25.928,30.764-51.837,46.104-77.78c0.855-1.448,1.795-1.942,3.463-1.922c7.695,0.096,15.393,0.038,23.089,0.045
		c1.909,0.002,1.929,0.017,2.171,1.973c1.379,11.144,2.742,22.289,4.125,33.433c1.779,14.35,3.602,28.692,5.334,43.047
		c0.504,4.167,0.854,3.408-3.01,3.433c-7.158,0.044-14.316,0.018-21.475,0.009c-1.883-0.002-1.91-0.021-2.035-1.867
		c-0.17-2.532-0.316-5.067-0.422-7.604c-0.041-1-0.285-1.471-1.463-1.462c-8.004,0.058-16.01,0.043-24.014,0.011
		c-0.904-0.004-1.373,0.338-1.762,1.113c-1.449,2.885-2.98,5.727-4.422,8.614c-0.432,0.864-0.959,1.225-1.957,1.22
		c-8.08-0.043-16.162-0.03-24.244-0.045C595.413,169.17,595.293,169.049,595.111,168.951z M650.959,112.958
		c-0.15,0.002-0.299,0.004-0.449,0.005c-4.822,9.319-9.645,18.64-14.621,28.255c5.506,0,10.641-0.013,15.775,0.01
		c1.328,0.006,0.969-0.926,0.932-1.607c-0.244-4.377-0.521-8.751-0.793-13.126C651.523,121.981,651.24,117.47,650.959,112.958z"/>
	<path fill-rule="evenodd" clip-rule="evenodd" fill="#FFFFFF" d="M358.112,87.293c-4.942,21.021-9.795,41.654-14.713,62.573
		c12.338,0,24.443,0,36.764,0c-1.018,4.376-1.97,8.475-2.924,12.572c-0.418,1.797-0.874,3.586-1.248,5.393
		c-0.203,0.978-0.623,1.511-1.702,1.374c-0.53-0.068-1.076-0.012-1.615-0.012c-19.326,0-38.652,0.001-57.979,0
		c-2.749,0-2.743,0-2.102-2.73c6.037-25.668,12.072-51.336,18.108-77.005c0.507-2.156,0.507-2.163,2.646-2.164
		c7.545-0.004,15.092-0.001,22.637-0.001C356.593,87.293,357.202,87.293,358.112,87.293z"/>
	<path fill-rule="evenodd" clip-rule="evenodd" fill="#FFFFFF" d="M558.172,149.936c12.02,0,24.09,0,36.088,0
		c0.463,0.766,0.047,1.32-0.084,1.879c-1.219,5.241-2.52,10.464-3.654,15.723c-0.295,1.363-0.855,1.686-2.16,1.684
		c-20.094-0.038-40.188-0.026-60.281-0.029c-0.451,0-0.922,0.084-1.439-0.25c0.041-1.879,0.707-3.693,1.139-5.538
		c5.756-24.548,11.543-49.087,17.324-73.629c0.123-0.524,0.289-1.04,0.375-1.569c0.105-0.647,0.453-0.93,1.094-0.911
		c0.383,0.011,0.77-0.001,1.154-0.001c7.545,0,15.088,0,22.633,0c0.154,0,0.309-0.004,0.463,0c1.746,0.043,1.762,0.047,1.391,1.652
		c-0.762,3.294-1.543,6.585-2.318,9.877c-3.883,16.459-7.766,32.918-11.65,49.377C558.121,148.722,557.943,149.239,558.172,149.936z
		"/>
	<path fill-rule="evenodd" clip-rule="evenodd" fill="#FFFFFF" d="M433.748,87.606c-0.654,2.834-1.313,5.738-1.996,8.636
		c-5.48,23.273-10.967,46.545-16.444,69.818c-0.736,3.13-0.717,3.134-3.966,3.134c-7.008,0-14.014,0-21.021,0
		c-0.462,0-0.926-0.028-1.385,0.006c-0.971,0.074-1.193-0.327-0.973-1.242c0.846-3.513,1.631-7.04,2.459-10.558
		c5.343-22.673,10.69-45.346,16.037-68.019c0.489-2.074,0.492-2.085,2.465-2.086c7.699-0.005,15.399-0.005,23.1,0.003
		C432.547,87.299,433.099,87.173,433.748,87.606z"/>
	<path fill-rule="evenodd" clip-rule="evenodd" fill="#FFFFFF" d="M1006.957,145.959c-0.694,2.944-1.399,5.908-2.091,8.875
		c-0.994,4.261-1.996,8.52-2.953,12.788c-0.252,1.121-0.721,1.616-1.988,1.604c-6.994-0.066-13.988-0.022-20.984-0.039
		c-1.561-0.004-1.619-0.081-1.268-1.575c1.613-6.875,3.27-13.74,4.857-20.62c0.205-0.884,0.48-1.306,1.465-1.3
		c7.455,0.041,14.912,0.035,22.367,0.053C1006.505,145.745,1006.646,145.842,1006.957,145.959z"/>
	<path fill-rule="evenodd" clip-rule="evenodd" fill="#FFFFFF" d="M1132.349,145.918c-0.193,2.245-0.896,4.358-1.395,6.51
		c-1.178,5.093-2.436,10.168-3.562,15.271c-0.248,1.117-0.644,1.525-1.803,1.518c-7.082-0.046-14.166-0.014-21.248-0.03
		c-1.414-0.004-1.468-0.062-1.148-1.438c1.597-6.889,3.234-13.769,4.832-20.658c0.215-0.931,0.52-1.422,1.646-1.412
		c7.314,0.062,14.629,0.034,21.941,0.047C1131.829,145.726,1132.044,145.836,1132.349,145.918z"/>
</g>
</svg>
