<?xml version="1.0" encoding="utf-8"?>
<!-- Generator: Adobe Illustrator 16.0.0, SVG Export Plug-In . SVG Version: 6.00 Build 0)  -->
<!DOCTYPE svg PUBLIC "-//W3C//DTD SVG 1.1//EN" "http://www.w3.org/Graphics/SVG/1.1/DTD/svg11.dtd">
<svg version="1.1" id="Layer_1" xmlns="http://www.w3.org/2000/svg" xmlns:xlink="http://www.w3.org/1999/xlink" x="0px" y="0px"
	 width="372.039px" height="277.356px" viewBox="0 0 372.039 277.356" enable-background="new 0 0 372.039 277.356"
	 xml:space="preserve">
<g>
	<path fill-rule="evenodd" clip-rule="evenodd" d="M358.062,188.522c-1.997,0.54-3.888,1.173-5.829,1.535
		c-1.447,0.27-1.981,1.015-2.181,2.375c-0.271,1.852-0.827,3.665-1.045,5.519c-0.168,1.437-0.841,1.706-2.141,1.699
		c-8.955-0.048-17.911,0.002-26.866-0.055c-1.308-0.008-1.879,0.389-2.292,1.646c-1.843,5.595-4.993,10.324-9.754,13.875
		c-7.852,5.856-17.824,5.778-25.602-0.182c-4.662-3.574-7.725-8.292-9.558-13.81c-0.406-1.22-0.968-1.524-2.18-1.524
		c-50.284,0.029-100.567,0.03-150.851,0c-1.221,0-1.775,0.323-2.175,1.537c-1.776,5.404-4.763,10.035-9.272,13.583
		c-8.004,6.297-18.293,6.317-26.322,0.059c-4.528-3.53-7.524-8.153-9.321-13.549c-0.419-1.26-0.989-1.636-2.285-1.632
		c-15.369,0.044-30.739-0.004-46.108,0.07c-1.876,0.009-2.902-0.303-3.028-2.41c-0.096-1.613-0.674-3.191-0.912-4.803
		c-0.197-1.334-0.68-2.131-2.156-2.397c-1.946-0.351-3.84-0.992-5.86-1.536c0-6.612-0.012-13.14,0.03-19.667
		c0.002-0.367,0.405-0.771,0.702-1.08c0.194-0.203,0.522-0.314,0.811-0.386c4.877-1.217,7.278-4.391,8.541-9.246
		c1.593-6.123,4.032-12.022,6.019-18.046c0.397-1.207,0.982-1.732,2.241-1.871c15.509-1.707,31.012-3.471,46.521-5.17
		c1.431-0.157,2.357-0.618,3.137-1.936c8.161-13.786,16.411-27.519,24.595-41.291c0.626-1.053,1.289-1.477,2.55-1.476
		c37.879,0.037,75.758,0.037,113.637,0.001c1.227-0.001,1.987,0.438,2.769,1.302c10.884,12.021,21.78,24.03,32.741,35.98
		c0.733,0.799,1.955,1.43,3.031,1.591c18.717,2.796,37.445,5.51,56.173,8.236c8.735,1.271,17.469,2.558,26.214,3.764
		c1.488,0.205,2.25,0.648,2.625,2.276c1.654,7.183,3.536,14.314,5.234,21.488c0.289,1.224,0.868,1.856,1.963,2.301
		c1.735,0.705,3.446,1.478,5.119,2.318c0.451,0.226,1.037,0.793,1.041,1.209C358.082,175.346,358.062,181.875,358.062,188.522z"/>
</g>
</svg>
