<?xml version="1.0" encoding="utf-8"?>
<!-- Generator: Adobe Illustrator 16.0.0, SVG Export Plug-In . SVG Version: 6.00 Build 0)  -->
<!DOCTYPE svg PUBLIC "-//W3C//DTD SVG 1.1//EN" "http://www.w3.org/Graphics/SVG/1.1/DTD/svg11.dtd">
<svg version="1.1" id="Layer_1" xmlns="http://www.w3.org/2000/svg" xmlns:xlink="http://www.w3.org/1999/xlink" x="0px" y="0px"
	 width="209.121px" height="277.356px" viewBox="0 0 209.121 277.356" enable-background="new 0 0 209.121 277.356"
	 xml:space="preserve">
<g>
	<path fill-rule="evenodd" clip-rule="evenodd" d="M81.897,255.581c-0.343-0.156-0.673-0.356-1.03-0.461
		c-3.416-0.991-5.399-3.293-5.978-6.742c-0.277-1.659-0.372-3.367-0.372-5.052c-0.019-52.087-0.016-104.177-0.016-156.267
		c0-0.829,0-1.658,0-2.624c-1.678,0-3.128,0-4.832,0c0,0.93,0,1.757,0,2.584c0.001,18.557,0.005,37.114-0.009,55.671
		c-0.001,1.102-0.069,2.216-0.237,3.304c-0.576,3.736-3.791,6.359-7.538,6.214c-4.092-0.16-7.077-2.948-7.387-6.896
		c-0.01-0.13-0.024-0.26-0.024-0.39c0.018-21.55,0.009-43.101,0.07-64.652c0.029-10.211,7.666-18.14,17.117-20.314
		c3.205-0.738,6.552-1.142,9.84-1.178c12.305-0.134,24.613-0.111,36.918-0.025c5.287,0.037,10.538,0.538,15.297,3.215
		c6.509,3.661,10.269,9.217,11.316,16.586c0.229,1.605,0.272,3.247,0.273,4.873c0.018,19.794,0.006,39.588,0.015,59.382
		c0.001,2.854-0.224,5.632-2.466,7.743c-2.068,1.948-4.467,2.981-7.311,1.984c-3.062-1.074-4.615-3.475-5.185-6.538
		c-0.235-1.27-0.279-2.59-0.28-3.887c-0.017-18.362-0.012-36.724-0.012-55.085c0-0.828,0-1.655,0-2.594c-1.695,0-3.146,0-4.832,0
		c0,1.029,0,1.922,0,2.815c0,51.765,0,103.529,0,155.29c0,0.456-0.013,0.913,0.001,1.368c0.171,5.563-1.384,10.03-7.396,11.675
		c-1.823,0-3.647,0-5.47,0c-0.214-0.132-0.411-0.325-0.643-0.386c-4.04-1.052-6.11-3.724-6.438-7.816
		c-0.119-1.488-0.241-2.983-0.241-4.474c-0.015-27.458-0.012-54.917-0.012-82.378c0-3.058-0.036-6.117,0.016-9.174
		c0.021-1.168-0.387-1.646-1.576-1.615c-2.081,0.055-4.164,0.008-6.246,0.012c-2.527,0.005-2.532,0.008-2.532,2.582
		c-0.001,30.193,0,60.386,0,90.576c0,0.651,0.034,1.305-0.009,1.952c-0.36,5.502-1.027,8.705-7.204,10.571
		c-0.051,0.015-0.081,0.099-0.12,0.15C85.545,255.581,83.721,255.581,81.897,255.581z"/>
	<path fill-rule="evenodd" clip-rule="evenodd" d="M101.823,11.007c4.386,0.953,8.346,2.643,11.688,5.813
		c6.097,5.782,8.002,16.618,4.231,24.162c-5.177,10.358-15.481,14.126-25.756,10.43c-8.445-3.04-14.312-11.396-13.373-20.981
		c1.01-10.306,7.354-16.977,17.61-19.171c0.183-0.039,0.348-0.167,0.52-0.253C98.438,11.007,100.129,11.007,101.823,11.007z"/>
</g>
</svg>
