<?xml version="1.0" encoding="utf-8"?>
<!-- Generator: Adobe Illustrator 16.0.0, SVG Export Plug-In . SVG Version: 6.00 Build 0)  -->
<!DOCTYPE svg PUBLIC "-//W3C//DTD SVG 1.1//EN" "http://www.w3.org/Graphics/SVG/1.1/DTD/svg11.dtd">
<svg version="1.1" id="Layer_1" xmlns="http://www.w3.org/2000/svg" xmlns:xlink="http://www.w3.org/1999/xlink" x="0px" y="0px"
	 width="722.322px" height="1000px" viewBox="0 0 722.322 1000" enable-background="new 0 0 722.322 1000" xml:space="preserve">
<g>
	<path fill-rule="evenodd" clip-rule="evenodd" fill="#DC4E4F" d="M352.178,377.435c2.555,1.862,5.427,3.178,8.177,4.695
		c27.68,15.279,55.375,30.528,83.061,45.798c0.58,0.32,1.298,0.484,1.658,1.199c-0.329,0.684-1.04,0.848-1.627,1.154
		c-10.973,5.741-21.958,11.456-32.91,17.233c-1.297,0.684-2.295,0.707-3.613-0.021c-13.334-7.362-26.666-14.729-40.101-21.903
		c-3.157-1.686-5.444-3.823-6.903-7.066c-1.069-2.378-2.45-4.618-3.726-6.9c-1.713-3.062-4.846-3.405-6.81-0.548
		c-1.956,2.845-3.914,5.731-5.332,8.896c-1.085,2.422-2.665,4.301-4.972,5.563c-12.888,7.056-25.783,14.098-38.669,21.155
		c-0.852,0.467-1.582,0.675-2.573,0.182c-12.183-6.073-24.392-12.096-36.591-18.137c-0.119-0.059-0.197-0.198-0.31-0.317
		c0.473-0.777,1.343-0.997,2.062-1.396c28.925-16.048,57.86-32.077,86.784-48.127c0.697-0.387,1.649-0.501,1.933-1.46
		C351.87,377.435,352.024,377.435,352.178,377.435z"/>
	<path fill-rule="evenodd" clip-rule="evenodd" fill="#832C2D" d="M360.494,583.485c0.145-12.075,0.322-24.151,0.387-36.228
		c0.008-1.416,0.676-2.048,1.645-2.742c8.257-5.912,16.497-11.847,24.742-17.773c2.436-1.752,4.879-3.494,7.308-5.256
		c2.104-1.525,4.343-2.527,7.043-2.44c2.146,0.069,4.3-0.185,6.453-0.206c1.208-0.012,2.261-0.373,3.253-1
		c2.352-1.485,2.805-3.269,1.339-5.67c-1.203-1.968-2.398-3.958-3.804-5.779c-1.756-2.277-1.971-4.716-1.472-7.412
		c1.218-6.576,2.314-13.175,3.569-19.743c0.25-1.307-0.01-1.955-1.209-2.492c-1.54-0.689-3.023-1.521-4.479-2.382
		c-3.506-2.073-3.721-5.221-0.546-7.816c0.59-0.482,1.284-0.841,1.943-1.234c10.313-6.148,21.163-11.284,31.778-16.863
		c3.879-2.039,7.78-4.035,11.677-6.041c0.587-0.302,1.138-0.744,2.062-0.691c-0.165,0.91-0.28,1.727-0.462,2.527
		c-5.787,25.327-11.596,50.65-17.344,75.986c-0.412,1.819-1.206,3.137-2.661,4.344c-22.743,18.861-45.443,37.775-68.133,56.701
		c-0.782,0.653-1.877,1.057-2.167,2.212C361.11,583.485,360.802,583.485,360.494,583.485z"/>
	<path fill-rule="evenodd" clip-rule="evenodd" fill="#832C2D" d="M346.172,583.485c-3.573-3.386-7.474-6.388-11.248-9.535
		c-19.913-16.61-39.848-33.194-59.802-49.755c-1.134-0.941-1.73-1.981-2.059-3.422c-5.888-25.854-11.833-51.697-17.761-77.543
		c-0.101-0.441-0.268-0.886-0.096-1.404c0.544-0.387,0.976,0.086,1.392,0.3c11.688,6.02,23.358,12.073,35.063,18.06
		c1.114,0.569,1.531,1.34,1.729,2.464c1.552,8.781,3.133,17.558,4.704,26.336c0.555,3.103,1.071,6.212,1.67,9.306
		c0.592,3.06,0.511,5.909-1.613,8.493c-1.214,1.477-2.135,3.194-3.181,4.808c-2.253,3.474-0.623,6.823,3.577,7.188
		c2.449,0.211,4.918,0.311,7.375,0.274c2.443-0.035,4.51,0.824,6.424,2.195c6.443,4.613,12.876,9.239,19.312,13.863
		c4.373,3.142,8.719,6.323,13.133,9.408c1.125,0.787,1.562,1.64,1.572,3.022c0.078,11.154,0.236,22.308,0.376,33.461
		c0.01,0.84-0.042,1.694,0.354,2.481C346.788,583.485,346.48,583.485,346.172,583.485z"/>
	<path fill-rule="evenodd" clip-rule="evenodd" fill="#DC4E4F" d="M387.81,461.469c-0.115,1.069-0.368,2.145-0.32,3.207
		c0.098,2.189-0.924,3.368-2.803,4.455c-9.786,5.66-19.49,11.461-29.185,17.277c-1.334,0.801-2.342,0.872-3.74,0.073
		c-10.284-5.874-20.606-11.681-30.96-17.432c-1.298-0.721-1.963-1.475-1.95-3.009c0.015-1.684-0.149-3.39-0.441-5.049
		c-0.293-1.668,0.426-2.455,1.808-3.217c6.868-3.788,13.681-7.677,20.512-11.532c3.416-1.929,6.858-3.812,10.227-5.82
		c1.15-0.686,2.019-0.618,3.169,0.009c10.404,5.657,20.826,11.282,31.286,16.835C387.216,458.225,388.625,459.137,387.81,461.469z"
		/>
	<path fill-rule="evenodd" clip-rule="evenodd" fill="#832C2D" d="M320.71,484.924c1.13,0.201,1.809,0.729,2.533,1.122
		c9.256,5.041,18.521,10.067,27.739,15.178c1.301,0.721,2.271,0.707,3.566,0.002c9.257-5.039,18.557-10,27.847-14.976
		c0.867-0.465,1.687-1.049,2.599-1.256c0.59,0.232,0.441,0.665,0.43,1.011c-0.229,7.075-0.485,14.149-0.687,21.226
		c-0.034,1.211-0.541,1.912-1.543,2.573c-9.313,6.146-18.601,12.332-27.86,18.56c-1.111,0.748-1.915,0.788-3.058,0.046
		c-9.491-6.155-19.023-12.247-28.544-18.355c-0.776-0.498-1.488-0.915-1.558-2.069c-0.441-7.296-0.968-14.588-1.461-21.882
		C320.692,485.801,320.71,485.496,320.71,484.924z"/>
</g>
<g>
	<polygon fill="none" stroke="#832C2D" stroke-width="6.28" stroke-miterlimit="10" points="351.377,136.015 9.842,326.502 
		79.237,643.985 354.971,873.188 633.939,648.8 709.602,332.158 	"/>
</g>
</svg>
