<?xml version="1.0" encoding="utf-8"?>
<!-- Generator: Adobe Illustrator 16.0.0, SVG Export Plug-In . SVG Version: 6.00 Build 0)  -->
<!DOCTYPE svg PUBLIC "-//W3C//DTD SVG 1.1//EN" "http://www.w3.org/Graphics/SVG/1.1/DTD/svg11.dtd">
<svg version="1.1" id="Layer_1" xmlns="http://www.w3.org/2000/svg" xmlns:xlink="http://www.w3.org/1999/xlink" x="0px" y="0px"
	 width="245.951px" height="277.357px" viewBox="0 0 245.951 277.357" enable-background="new 0 0 245.951 277.357"
	 xml:space="preserve">
<g>
	<path fill-rule="evenodd" clip-rule="evenodd" fill="#DC4E4F" d="M-4157.957,78.034c2.555,1.862,5.427,3.178,8.177,4.695
		c27.68,15.279,55.375,30.528,83.061,45.798c0.58,0.32,1.298,0.484,1.658,1.199c-0.329,0.684-1.04,0.848-1.627,1.154
		c-10.973,5.741-21.958,11.456-32.91,17.233c-1.297,0.684-2.295,0.707-3.613-0.021c-13.334-7.362-26.666-14.729-40.101-21.903
		c-3.157-1.686-5.444-3.823-6.903-7.066c-1.069-2.378-2.45-4.618-3.726-6.9c-1.713-3.062-4.846-3.405-6.81-0.548
		c-1.956,2.845-3.914,5.731-5.332,8.896c-1.085,2.422-2.665,4.301-4.972,5.563c-12.888,7.056-25.783,14.098-38.669,21.155
		c-0.852,0.467-1.582,0.675-2.573,0.182c-12.183-6.073-24.392-12.096-36.591-18.137c-0.119-0.059-0.197-0.198-0.31-0.317
		c0.473-0.777,1.343-0.997,2.062-1.396c28.925-16.048,57.86-32.077,86.784-48.127c0.697-0.387,1.649-0.501,1.933-1.46
		C-4158.265,78.034-4158.11,78.034-4157.957,78.034z"/>
	<path fill-rule="evenodd" clip-rule="evenodd" fill="#832C2D" d="M-4149.641,284.084c0.145-12.075,0.322-24.151,0.387-36.228
		c0.008-1.416,0.676-2.048,1.645-2.742c8.257-5.912,16.497-11.847,24.742-17.773c2.436-1.752,4.879-3.494,7.308-5.256
		c2.104-1.525,4.343-2.527,7.043-2.44c2.146,0.069,4.3-0.185,6.453-0.206c1.208-0.012,2.261-0.373,3.253-1
		c2.352-1.485,2.805-3.269,1.339-5.67c-1.203-1.968-2.398-3.958-3.804-5.779c-1.756-2.277-1.971-4.716-1.472-7.412
		c1.218-6.576,2.314-13.175,3.569-19.743c0.25-1.307-0.01-1.955-1.209-2.492c-1.54-0.689-3.023-1.521-4.479-2.382
		c-3.506-2.073-3.721-5.221-0.546-7.816c0.59-0.482,1.284-0.841,1.943-1.234c10.313-6.148,21.163-11.284,31.778-16.863
		c3.879-2.039,7.78-4.035,11.677-6.041c0.587-0.302,1.138-0.744,2.062-0.691c-0.165,0.91-0.28,1.727-0.462,2.527
		c-5.787,25.327-11.596,50.65-17.344,75.986c-0.412,1.819-1.206,3.137-2.661,4.344c-22.743,18.861-45.443,37.775-68.133,56.701
		c-0.782,0.653-1.877,1.057-2.167,2.212C-4149.024,284.084-4149.332,284.084-4149.641,284.084z"/>
	<path fill-rule="evenodd" clip-rule="evenodd" fill="#832C2D" d="M-4163.962,284.084c-3.573-3.386-7.474-6.388-11.248-9.535
		c-19.913-16.61-39.848-33.194-59.802-49.755c-1.134-0.941-1.73-1.981-2.059-3.422c-5.888-25.854-11.833-51.697-17.761-77.543
		c-0.101-0.441-0.268-0.886-0.096-1.404c0.544-0.387,0.976,0.086,1.392,0.3c11.688,6.02,23.358,12.073,35.063,18.06
		c1.114,0.569,1.531,1.34,1.729,2.464c1.552,8.781,3.133,17.558,4.704,26.336c0.555,3.103,1.071,6.212,1.67,9.306
		c0.592,3.06,0.511,5.909-1.613,8.493c-1.214,1.477-2.135,3.194-3.181,4.808c-2.253,3.474-0.623,6.823,3.577,7.188
		c2.449,0.211,4.918,0.311,7.375,0.274c2.443-0.035,4.51,0.824,6.424,2.195c6.443,4.613,12.876,9.239,19.312,13.863
		c4.373,3.142,8.719,6.323,13.133,9.408c1.125,0.787,1.562,1.64,1.572,3.022c0.078,11.154,0.236,22.308,0.376,33.461
		c0.01,0.84-0.042,1.694,0.354,2.481C-4163.347,284.084-4163.654,284.084-4163.962,284.084z"/>
	<path fill-rule="evenodd" clip-rule="evenodd" fill="#DC4E4F" d="M-4122.324,162.068c-0.115,1.069-0.368,2.145-0.32,3.207
		c0.098,2.189-0.924,3.368-2.803,4.455c-9.786,5.66-19.49,11.461-29.185,17.277c-1.334,0.801-2.342,0.872-3.74,0.073
		c-10.284-5.874-20.606-11.681-30.96-17.432c-1.298-0.721-1.963-1.475-1.95-3.009c0.015-1.684-0.149-3.39-0.441-5.049
		c-0.293-1.668,0.426-2.455,1.808-3.217c6.868-3.788,13.681-7.677,20.512-11.532c3.416-1.929,6.858-3.812,10.227-5.82
		c1.15-0.686,2.019-0.618,3.169,0.009c10.404,5.657,20.826,11.282,31.286,16.835
		C-4122.918,158.824-4121.51,159.736-4122.324,162.068z"/>
	<path fill-rule="evenodd" clip-rule="evenodd" fill="#832C2D" d="M-4189.424,185.523c1.13,0.201,1.809,0.729,2.533,1.122
		c9.256,5.041,18.521,10.067,27.739,15.178c1.301,0.721,2.271,0.707,3.566,0.002c9.257-5.039,18.557-10,27.847-14.976
		c0.867-0.465,1.687-1.049,2.599-1.256c0.59,0.232,0.441,0.665,0.43,1.011c-0.229,7.075-0.485,14.149-0.687,21.226
		c-0.034,1.211-0.541,1.912-1.543,2.573c-9.313,6.146-18.601,12.332-27.86,18.56c-1.111,0.748-1.915,0.788-3.058,0.046
		c-9.491-6.155-19.023-12.247-28.544-18.355c-0.776-0.498-1.488-0.915-1.558-2.069c-0.441-7.296-0.968-14.588-1.461-21.882
		C-4189.442,186.4-4189.424,186.095-4189.424,185.523z"/>
</g>
<g>
	<polygon fill="none" stroke="#832C2D" stroke-width="6.28" stroke-miterlimit="10" points="-4158.757,-163.386 -4500.292,27.101 
		-4430.897,344.584 -4155.164,573.787 -3876.195,349.399 -3800.532,32.757 	"/>
</g>
<g>
	<path fill-rule="evenodd" clip-rule="evenodd" fill="#DC4E4F" d="M-3129.807-31.116c2.555,1.862,5.427,3.178,8.177,4.695
		c27.68,15.279,55.375,30.528,83.061,45.798c0.58,0.32,1.298,0.484,1.658,1.199c-0.329,0.684-1.04,0.848-1.627,1.154
		c-10.972,5.741-21.958,11.456-32.91,17.233c-1.296,0.684-2.295,0.707-3.613-0.021c-13.333-7.362-26.665-14.729-40.1-21.903
		c-3.157-1.686-5.444-3.823-6.903-7.066c-1.069-2.378-2.45-4.618-3.726-6.9c-1.713-3.062-4.846-3.405-6.81-0.548
		c-1.956,2.845-3.914,5.731-5.332,8.896c-1.085,2.422-2.665,4.301-4.972,5.563c-12.888,7.056-25.783,14.098-38.669,21.155
		c-0.852,0.467-1.582,0.675-2.573,0.182c-12.183-6.073-24.392-12.096-36.591-18.137c-0.119-0.059-0.197-0.198-0.31-0.317
		c0.473-0.777,1.343-0.997,2.062-1.396c28.925-16.048,57.86-32.077,86.784-48.127c0.697-0.387,1.649-0.501,1.933-1.46
		C-3130.115-31.116-3129.96-31.116-3129.807-31.116z"/>
	<path fill-rule="evenodd" clip-rule="evenodd" fill="#832C2D" d="M-3121.491,174.935c0.145-12.075,0.322-24.151,0.387-36.228
		c0.007-1.416,0.675-2.048,1.644-2.742c8.257-5.912,16.497-11.847,24.742-17.773c2.436-1.752,4.879-3.494,7.308-5.256
		c2.104-1.525,4.342-2.527,7.043-2.44c2.146,0.069,4.3-0.185,6.453-0.206c1.208-0.012,2.261-0.373,3.253-1
		c2.352-1.485,2.805-3.269,1.339-5.67c-1.203-1.968-2.398-3.958-3.804-5.779c-1.756-2.277-1.971-4.716-1.472-7.412
		c1.217-6.576,2.314-13.175,3.569-19.743c0.25-1.307-0.009-1.955-1.209-2.492c-1.54-0.689-3.023-1.521-4.479-2.382
		c-3.506-2.073-3.721-5.221-0.546-7.816c0.59-0.482,1.284-0.841,1.943-1.234c10.313-6.148,21.163-11.284,31.778-16.863
		c3.879-2.039,7.78-4.035,11.677-6.041c0.586-0.302,1.138-0.744,2.062-0.691c-0.165,0.91-0.28,1.727-0.462,2.527
		c-5.787,25.327-11.595,50.65-17.343,75.986c-0.413,1.819-1.207,3.137-2.662,4.344c-22.743,18.861-45.443,37.775-68.133,56.701
		c-0.783,0.653-1.877,1.057-2.167,2.212C-3120.875,174.935-3121.183,174.935-3121.491,174.935z"/>
	<path fill-rule="evenodd" clip-rule="evenodd" fill="#832C2D" d="M-3135.812,174.935c-3.573-3.386-7.474-6.388-11.248-9.535
		c-19.913-16.61-39.848-33.194-59.802-49.755c-1.134-0.941-1.73-1.981-2.059-3.422c-5.888-25.854-11.833-51.697-17.761-77.543
		c-0.101-0.441-0.268-0.886-0.096-1.404c0.544-0.387,0.976,0.086,1.392,0.3c11.688,6.02,23.358,12.073,35.063,18.06
		c1.114,0.569,1.531,1.34,1.729,2.464c1.552,8.781,3.133,17.558,4.704,26.336c0.555,3.103,1.071,6.212,1.67,9.306
		c0.592,3.06,0.511,5.909-1.613,8.493c-1.214,1.477-2.135,3.194-3.181,4.808c-2.253,3.474-0.623,6.823,3.577,7.188
		c2.449,0.211,4.918,0.311,7.375,0.274c2.443-0.035,4.51,0.824,6.424,2.195c6.443,4.613,12.876,9.239,19.312,13.863
		c4.373,3.142,8.719,6.323,13.133,9.408c1.125,0.787,1.562,1.64,1.572,3.022c0.078,11.154,0.236,22.308,0.376,33.461
		c0.01,0.84-0.042,1.694,0.354,2.481C-3135.197,174.935-3135.504,174.935-3135.812,174.935z"/>
	<path fill-rule="evenodd" clip-rule="evenodd" fill="#DC4E4F" d="M-3094.174,52.918c-0.116,1.069-0.369,2.145-0.321,3.207
		c0.098,2.189-0.924,3.368-2.803,4.455c-9.786,5.66-19.491,11.461-29.185,17.277c-1.334,0.801-2.342,0.872-3.74,0.073
		c-10.284-5.874-20.606-11.681-30.96-17.432c-1.298-0.721-1.963-1.475-1.95-3.009c0.015-1.684-0.149-3.39-0.441-5.049
		c-0.293-1.668,0.426-2.455,1.808-3.217c6.868-3.788,13.681-7.677,20.512-11.532c3.416-1.929,6.858-3.812,10.227-5.82
		c1.15-0.686,2.019-0.618,3.169,0.009c10.404,5.657,20.826,11.282,31.286,16.835C-3094.768,49.674-3093.36,50.586-3094.174,52.918z"
		/>
	<path fill-rule="evenodd" clip-rule="evenodd" fill="#832C2D" d="M-3161.274,76.373c1.13,0.201,1.809,0.729,2.533,1.122
		c9.256,5.041,18.521,10.067,27.739,15.178c1.301,0.721,2.271,0.707,3.566,0.002c9.257-5.039,18.556-10,27.847-14.976
		c0.867-0.465,1.687-1.049,2.599-1.256c0.59,0.232,0.441,0.665,0.429,1.011c-0.228,7.075-0.485,14.149-0.687,21.226
		c-0.034,1.211-0.541,1.912-1.543,2.573c-9.313,6.146-18.601,12.332-27.86,18.56c-1.111,0.748-1.915,0.788-3.058,0.046
		c-9.491-6.155-19.023-12.247-28.544-18.355c-0.776-0.498-1.488-0.915-1.558-2.069c-0.441-7.296-0.968-14.588-1.461-21.882
		C-3161.292,77.25-3161.274,76.945-3161.274,76.373z"/>
</g>
<g>
	<path fill-rule="evenodd" clip-rule="evenodd" fill="#FFFFFF" d="M-2756.612,75.757c1.106-6.034,2.026-11.876,3.27-17.647
		c1.78-8.267,3.809-16.479,5.694-24.723c0.273-1.191,0.877-1.529,2.07-1.521c7.314,0.053,14.629,0.019,21.943,0.031
		c2.104,0.003,2.258-0.373,1.674,2.131c-2.605,11.154-5.236,22.302-7.865,33.45c-3.477,14.741-6.961,29.48-10.441,44.219
		c-0.492,2.088-0.494,2.094-2.697,2.095c-7.006,0.003-14.013-0.045-21.019,0.038c-1.473,0.017-2.146-0.5-2.693-1.814
		c-5.499-13.196-11.057-26.369-16.6-39.547c-0.322-0.767-0.67-1.522-1.234-2.799c-0.259,1.084-0.448,1.682-0.541,2.295
		c-2.035,13.477-5.374,26.676-8.498,39.919c-0.521,2.21-0.266,1.9-2.397,1.904c-7.314,0.013-14.629,0.007-21.943,0
		c-0.53-0.001-1.08,0.106-1.789-0.272c0.714-3.057,1.436-6.175,2.169-9.289c5.529-23.498,11.06-46.994,16.594-70.491
		c0.432-1.831,0.445-1.839,2.437-1.841c7.083-0.005,14.167,0.041,21.25-0.037c1.462-0.016,2.144,0.479,2.694,1.807
		c5.505,13.278,11.072,26.531,16.634,39.786C-2757.612,74.143-2757.474,74.924-2756.612,75.757z"/>
	<path fill-rule="evenodd" clip-rule="evenodd" fill="#FFFFFF" d="M-3027.583,113.437c2.416-10.245,4.817-20.407,7.209-30.57
		c3.838-16.307,7.67-32.615,11.508-48.922c0.479-2.039,0.487-2.049,2.502-2.05c13.084-0.004,26.168-0.059,39.251,0.026
		c5.232,0.034,10.456,0.445,15.487,2.086c1.164,0.38,2.323,0.814,3.423,1.352c6.083,2.972,8.662,8.081,7.641,14.77
		c-1.167,7.637-5.409,13.249-11.436,17.725c-1.095,0.812-2.235,1.565-3.444,2.407c0.383,0.188,0.58,0.307,0.791,0.387
		c6.97,2.619,9.312,8.954,8.486,15.22c-1.717,13.005-9.053,21.36-21.507,25.269c-5.469,1.717-11.111,2.402-16.826,2.523
		c-13.85,0.295-27.702,0.064-41.553,0.131C-3026.501,113.791-3026.977,113.885-3027.583,113.437z M-2996.213,94.545
		c4.23,0,8.14,0.002,12.049-0.003c0.767-0.001,1.543,0.035,2.299-0.062c1.29-0.167,2.596-0.321,3.844-0.667
		c4.225-1.169,6.466-3.834,6.983-8.147c0.262-2.185-0.675-3.957-2.665-4.878c-1.332-0.617-2.77-0.906-4.229-1.012
		c-4.522-0.323-9.052-0.1-13.578-0.185c-0.958-0.019-1.337,0.379-1.539,1.279C-2994.053,85.353-2995.114,89.822-2996.213,94.545z
		 M-2988.926,64.473c4.346,0,8.646,0.216,12.914-0.06c4.451-0.286,7.719-3.061,8.695-6.741c0.966-3.64-0.247-5.612-3.917-6.34
		c-0.524-0.104-1.063-0.182-1.597-0.186c-3.992-0.033-7.983-0.016-11.975-0.081c-0.977-0.016-1.306,0.393-1.503,1.269
		c-0.841,3.739-1.745,7.465-2.61,11.198C-2988.981,63.809-2988.926,64.113-2988.926,64.473z"/>
	<path fill-rule="evenodd" clip-rule="evenodd" fill="#FFFFFF" d="M-2562.01,113.681c2.504-10.663,4.945-21.056,7.389-31.447
		c3.766-16.014,7.531-32.026,11.303-48.038c0.541-2.299,0.557-2.301,2.787-2.302c13.012-0.002,26.023-0.062,39.033,0.027
		c5.771,0.04,11.533,0.456,17.127,2.092c1.777,0.52,3.492,1.182,5.115,2.081c3.906,2.168,6.133,5.47,6.746,9.895
		c1.408,10.145-4.887,22.49-13.945,27.22c-1.416,0.739-2.932,1.284-4.701,2.049c1.256,0.614,2.283,1.151,3.34,1.626
		c4.285,1.927,6.152,5.312,6.18,9.918c0.025,4.438-1.053,8.686-2.037,12.957c-0.621,2.695-1.43,5.356-1.674,8.124
		c-0.113,1.278-0.361,2.663,1.334,3.29c0.795,0.294,0.152,0.922,0.123,1.388c-0.031,0.528-0.074,1.129-0.803,1.2
		c-0.457,0.044-0.922,0.032-1.383,0.032c-7.777,0.001-15.553,0.005-23.328-0.002c-2.084-0.002-2.072-0.025-1.969-2.024
		c0.236-4.557,1.236-8.983,2.238-13.41c0.51-2.257,0.951-4.521,0.832-6.852c-0.146-2.83-1.289-4.363-3.975-5.31
		c-1.684-0.593-3.434-0.858-5.211-0.878c-3.156-0.035-6.314,0.022-9.469-0.065c-1.17-0.032-1.57,0.399-1.824,1.498
		c-1.934,8.39-3.936,16.763-5.92,25.141c-0.446,1.888-0.451,1.899-2.383,1.901c-7.854,0.005-15.707,0.003-23.559-0.003
		C-2561.021,113.788-2561.4,113.73-2562.01,113.681z M-2524.182,67.24c5.707-0.135,11.225,0.389,16.703-0.569
		c1.206-0.211,2.369-0.618,3.492-1.149c3.459-1.635,4.916-4.555,5.064-8.156c0.092-2.218-0.965-3.998-3.019-5.063
		c-1.675-0.868-3.464-1.222-5.339-1.218c-3.307,0.006-6.613,0.001-9.922,0.001c-3.164,0.001-3.18-0.003-3.928,3.142
		C-2522.141,58.476-2523.125,62.73-2524.182,67.24z"/>
	<path fill-rule="evenodd" clip-rule="evenodd" fill="#FFFFFF" d="M-2276.526,82.021c0.24,0.741-0.033,1.22-0.232,1.717
		c-6.465,16.176-17.852,26.868-34.98,30.854c-9.467,2.202-18.979,1.965-28.181-1.455c-11.084-4.121-16.937-12.364-17.922-24.023
		c-1.543-18.251,7.609-43.158,30.812-54.355c12.738-6.146,25.947-6.797,39.23-2.109c10.061,3.55,15.043,11.213,15.863,21.699
		c0.191,2.456,0.119,4.92-0.141,7.377c-0.102,0.948-0.334,1.486-1.516,1.478c-7.619-0.058-15.238-0.044-22.857-0.013
		c-1.016,0.004-1.359-0.303-1.25-1.333c0.104-0.986,0.086-2-0.002-2.991c-0.414-4.672-3.234-7.768-7.854-8.7
		c-6.117-1.235-11.221,0.646-15.486,5.06c-1.94,2.008-3.463,4.324-4.676,6.827c-3.084,6.366-4.873,13.095-5.402,20.144
		c-0.15,1.99-0.074,3.988,0.42,5.959c1.027,4.108,3.703,6.454,7.756,7.279c7.33,1.492,13.605-1.1,17.834-7.287
		c0.871-1.273,1.775-2.58,2.189-4.04c0.537-1.897,1.684-2.144,3.41-2.121c6.926,0.089,13.854,0.036,20.778,0.036
		C-2277.976,82.021-2277.222,82.021-2276.526,82.021z"/>
	<path fill-rule="evenodd" clip-rule="evenodd" fill="#FFFFFF" d="M-2479.328,113.623c2.688-4.53,5.234-8.823,7.781-13.117
		c13.149-22.157,26.316-44.305,39.412-66.493c0.934-1.581,1.918-2.196,3.777-2.168c7.621,0.115,15.244,0.045,22.867,0.051
		c2,0.001,2.031,0.011,2.268,1.931c0.988,8.018,1.949,16.039,2.936,24.057c1.145,9.316,2.307,18.63,3.457,27.945
		c1.123,9.086,2.242,18.173,3.355,27.26c0.018,0.143-0.061,0.297-0.094,0.451c-0.543,0.416-1.18,0.245-1.775,0.246
		c-7.623,0.012-15.244,0.012-22.867,0.005c-1.938-0.002-1.941-0.019-2.064-2.009c-0.148-2.457-0.336-4.914-0.414-7.375
		c-0.037-1.187-0.48-1.553-1.67-1.545c-7.852,0.048-15.705,0.055-23.559-0.007c-1.219-0.009-1.766,0.496-2.258,1.483
		c-1.371,2.752-2.871,5.44-4.225,8.201c-0.479,0.977-1.076,1.283-2.139,1.277c-7.93-0.044-15.859-0.025-23.789-0.031
		C-2478.543,113.785-2478.758,113.718-2479.328,113.623z M-2438.246,85.82c5.299,0,10.059,0.002,14.818-0.001
		c2.049-0.001,1.957,0.192,1.83-2.058c-0.477-8.43-0.975-16.857-1.48-25.285c-0.02-0.305,0.16-0.804-0.578-0.857
		C-2428.441,66.866-2433.248,76.156-2438.246,85.82z"/>
	<path fill-rule="evenodd" clip-rule="evenodd" fill="#FFFFFF" d="M-2241.097,113.484c2.027-3.432,3.973-6.736,5.93-10.035
		c13.773-23.206,27.562-46.4,41.281-69.638c0.865-1.466,1.777-1.973,3.436-1.955c7.695,0.082,15.391,0.037,23.086,0.036
		c1.773,0,2-0.283,2.266,1.915c1.902,15.727,3.881,31.444,5.826,47.166c1.258,10.15,2.499,20.303,3.746,30.454
		c0.057,0.458,0.07,0.921,0.125,1.379c0.078,0.684-0.213,1.006-0.9,0.984c-0.307-0.01-0.615,0.002-0.924,0.002
		c-7.619,0-15.236,0.005-22.855-0.004c-1.988-0.002-1.99-0.022-2.111-2.03c-0.154-2.532-0.354-5.063-0.436-7.599
		c-0.033-1.021-0.422-1.293-1.387-1.289c-8.004,0.027-16.009,0.037-24.012-0.013c-1.04-0.007-1.486,0.435-1.902,1.265
		c-1.412,2.816-2.904,5.592-4.318,8.407c-0.418,0.831-0.883,1.291-1.916,1.286c-8.08-0.047-16.16-0.032-24.24-0.044
		C-2240.534,113.771-2240.663,113.669-2241.097,113.484z M-2183.353,85.734c-0.568-9.542-1.123-18.849-1.678-28.156
		c-0.141-0.027-0.283-0.055-0.424-0.081c-4.84,9.35-9.682,18.7-14.619,28.237C-2194.335,85.734-2188.974,85.734-2183.353,85.734z"/>
	<path fill-rule="evenodd" clip-rule="evenodd" fill="#FFFFFF" d="M-2655.701,113.55c-0.021-0.804,0.568-1.371,0.939-1.997
		c15.367-25.928,30.764-51.837,46.104-77.78c0.855-1.448,1.795-1.942,3.463-1.922c7.695,0.096,15.393,0.038,23.089,0.045
		c1.909,0.002,1.929,0.017,2.171,1.973c1.379,11.144,2.742,22.289,4.125,33.433c1.779,14.35,3.602,28.692,5.334,43.047
		c0.504,4.167,0.854,3.408-3.01,3.433c-7.158,0.044-14.316,0.018-21.475,0.009c-1.883-0.002-1.91-0.021-2.035-1.867
		c-0.17-2.532-0.316-5.067-0.422-7.604c-0.041-1-0.285-1.471-1.463-1.462c-8.004,0.058-16.01,0.043-24.014,0.011
		c-0.904-0.004-1.373,0.338-1.762,1.113c-1.449,2.885-2.98,5.727-4.422,8.614c-0.432,0.864-0.959,1.225-1.957,1.22
		c-8.08-0.043-16.162-0.03-24.244-0.045C-2655.399,113.77-2655.52,113.648-2655.701,113.55z M-2599.854,57.557
		c-0.15,0.002-0.299,0.004-0.449,0.005c-4.822,9.319-9.645,18.64-14.621,28.255c5.506,0,10.641-0.013,15.775,0.01
		c1.328,0.006,0.969-0.926,0.932-1.607c-0.244-4.377-0.521-8.751-0.793-13.126C-2599.289,66.58-2599.572,62.069-2599.854,57.557z"/>
	<path fill-rule="evenodd" clip-rule="evenodd" fill="#FFFFFF" d="M-2892.701,31.893c-4.942,21.021-9.795,41.654-14.713,62.573
		c12.338,0,24.443,0,36.764,0c-1.018,4.376-1.97,8.475-2.924,12.572c-0.418,1.797-0.874,3.586-1.248,5.393
		c-0.203,0.978-0.623,1.511-1.702,1.374c-0.53-0.068-1.076-0.012-1.615-0.012c-19.326,0-38.652,0.001-57.979,0
		c-2.749,0-2.743,0-2.102-2.73c6.037-25.668,12.072-51.336,18.108-77.005c0.507-2.156,0.507-2.163,2.646-2.164
		c7.545-0.004,15.092-0.001,22.637-0.001C-2894.219,31.893-2893.611,31.893-2892.701,31.893z"/>
	<path fill-rule="evenodd" clip-rule="evenodd" fill="#FFFFFF" d="M-2692.641,94.535c12.02,0,24.09,0,36.088,0
		c0.463,0.766,0.047,1.32-0.084,1.879c-1.219,5.241-2.52,10.464-3.654,15.723c-0.295,1.363-0.855,1.686-2.16,1.684
		c-20.094-0.038-40.188-0.026-60.281-0.029c-0.451,0-0.922,0.084-1.439-0.25c0.041-1.879,0.707-3.693,1.139-5.538
		c5.756-24.548,11.543-49.087,17.324-73.629c0.123-0.524,0.289-1.04,0.375-1.569c0.105-0.647,0.453-0.93,1.094-0.911
		c0.383,0.011,0.77-0.001,1.154-0.001c7.545,0,15.088,0,22.633,0c0.154,0,0.309-0.004,0.463,0c1.746,0.043,1.762,0.047,1.391,1.652
		c-0.762,3.294-1.543,6.585-2.318,9.877c-3.883,16.459-7.766,32.918-11.65,49.377C-2692.691,93.321-2692.869,93.838-2692.641,94.535
		z"/>
	<path fill-rule="evenodd" clip-rule="evenodd" fill="#FFFFFF" d="M-2817.064,32.205c-0.654,2.834-1.313,5.738-1.996,8.636
		c-5.48,23.273-10.967,46.545-16.444,69.818c-0.736,3.13-0.717,3.134-3.966,3.134c-7.008,0-14.014,0-21.021,0
		c-0.462,0-0.926-0.028-1.385,0.006c-0.971,0.074-1.193-0.327-0.973-1.242c0.846-3.513,1.631-7.04,2.459-10.558
		c5.343-22.673,10.69-45.346,16.037-68.019c0.489-2.074,0.492-2.085,2.465-2.086c7.699-0.005,15.399-0.005,23.1,0.003
		C-2818.265,31.898-2817.713,31.772-2817.064,32.205z"/>
	<path fill-rule="evenodd" clip-rule="evenodd" fill="#FFFFFF" d="M-2243.855,90.559c-0.694,2.944-1.399,5.908-2.091,8.875
		c-0.994,4.261-1.996,8.52-2.953,12.788c-0.252,1.121-0.721,1.616-1.988,1.604c-6.994-0.066-13.988-0.022-20.984-0.039
		c-1.561-0.004-1.619-0.081-1.268-1.575c1.613-6.875,3.27-13.74,4.857-20.62c0.205-0.884,0.48-1.306,1.465-1.3
		c7.455,0.041,14.912,0.035,22.367,0.053C-2244.308,90.344-2244.167,90.441-2243.855,90.559z"/>
	<path fill-rule="evenodd" clip-rule="evenodd" fill="#FFFFFF" d="M-2118.464,90.518c-0.193,2.245-0.896,4.358-1.395,6.51
		c-1.178,5.093-2.436,10.168-3.562,15.271c-0.248,1.117-0.644,1.525-1.803,1.518c-7.082-0.046-14.166-0.014-21.248-0.03
		c-1.414-0.004-1.468-0.062-1.148-1.438c1.597-6.889,3.234-13.769,4.832-20.658c0.215-0.931,0.52-1.422,1.646-1.412
		c7.314,0.062,14.629,0.034,21.941,0.047C-2118.983,90.325-2118.769,90.436-2118.464,90.518z"/>
</g>
<g>
	<path fill-rule="evenodd" clip-rule="evenodd" d="M8.214,87.629c7.776,2.692,15.562,5.358,23.325,8.082
		c7.453,2.612,14.178,1.435,21.137-2.41c10.325-5.706,20.871-11.22,31.834-15.505c9.666-3.778,18.965-1.213,27.212,6.19
		c-6.118,3.455-11.95,6.576-17.604,9.991c-4.938,2.983-9.971,5.934-14.441,9.544c-8.129,6.564-9.861,18.327-4.578,27.503
		c5.191,9.02,15.437,13.182,25.273,9.487c8.229-3.09,16.132-7.053,24.166-10.655c7.887-3.536,12.676-2.72,18.801,3.375
		c13.328,13.264,26.635,26.549,39.938,39.838c4.743,4.737,5.124,11,0.957,15.02c-4.115,3.971-9.945,3.587-14.698-1.025
		c-3.944-3.828-7.81-7.737-11.772-11.544c-1.172-1.125-2.562-2.025-3.85-3.028c-0.316,0.277-0.631,0.554-0.945,0.832
		c0.716,1.245,1.239,2.667,2.184,3.705c3.604,3.953,7.311,7.813,11.038,11.65c5.26,5.414,5.804,11.437,1.346,15.688
		c-4.267,4.067-10.248,3.341-15.307-1.73c-5.688-5.702-11.46-11.319-17.195-16.974c-0.403,0.312-0.806,0.625-1.208,0.938
		c0.91,1.45,1.629,3.074,2.764,4.32c3.699,4.064,7.574,7.965,11.332,11.978c4.532,4.838,4.788,10.695,0.709,14.7
		c-4.146,4.071-9.803,3.691-14.619-1.082c-4.52-4.479-8.928-9.073-13.463-13.537c-1.11-1.094-2.526-1.876-3.802-2.801
		c-0.321,0.328-0.64,0.657-0.96,0.984c0.922,1.312,1.711,2.747,2.791,3.912c3.05,3.285,6.285,6.397,9.324,9.692
		c4.678,5.071,4.887,11.116,0.65,15.02c-4.316,3.977-10.014,3.271-14.943-1.679c-2.408-2.414-3.777-4.735-3.723-8.572
		c0.127-8.835-4.338-15.246-12.312-19.317c-1.709-0.872-3.334-2.661-4.133-4.421c-2.312-5.09-5.763-8.839-10.694-11.475
		c-1.612-0.861-3.211-2.426-3.979-4.062c-2.322-4.929-5.803-8.49-10.614-10.978c-1.403-0.726-2.946-1.965-3.541-3.348
		c-3.939-9.185-11.132-13.644-20.743-13.666c-9.63-0.021-17.242,4.239-21.93,12.998c-0.477,0.889-0.971,1.769-1.47,2.645
		c-0.065,0.116-0.207,0.189-0.571,0.509c-3.774-1.134-7.729-2.322-11.683-3.51C8.214,139.15,8.214,113.39,8.214,87.629z"/>
	<path fill-rule="evenodd" clip-rule="evenodd" d="M230.277,95.387c0,22.272,0,44.343,0,67.498
		c-9.004,1.199-18.191,3.044-27.43,3.329c-3.418,0.105-7.566-2.813-10.326-5.455c-14.621-13.994-28.901-28.343-43.309-42.56
		c-6.082-6.002-11.068-6.998-18.795-3.155c-10.08,5.012-19.99,10.367-30.006,15.513c-5.438,2.793-11.263,2.056-15.287-1.779
		c-3.799-3.619-5.309-9.246-2.939-13.881c1.308-2.557,3.469-5.155,5.917-6.575c16.987-9.844,34.261-19.198,51.212-29.101
		c8.234-4.811,15.579-5.164,22.996,1.349c6.838,6.006,14.096,11.54,20.845,17.641c4.654,4.207,9.677,5.31,15.593,3.961
		c9.429-2.149,18.883-4.188,28.331-6.259C228.051,95.7,229.043,95.587,230.277,95.387z"/>
	<path fill-rule="evenodd" clip-rule="evenodd" d="M44.279,188.227c-1.843,0.487-2.684,0.683-3.51,0.932
		c-4.127,1.237-8.047,1.364-11.053-2.381c-2.931-3.654-3.189-7.813-1.136-11.804c1.687-3.276,3.634-6.668,6.276-9.143
		c4.092-3.832,9.221-4.667,14.459-2.033c5.652,2.844,6.773,7.822,6.096,12.622c4.028,1.609,8.59,2.229,11.201,4.817
		c2.508,2.484,2.996,7.009,4.566,11.149c11.211,1.604,14.625,5.573,12.734,16.345c0.698,0,1.342,0.075,1.964-0.012
		c4.852-0.675,8.956,0.731,11.767,4.777c2.904,4.179,2.736,8.736,0.502,13.156c-3.008,5.952-11.738,10.203-18.341,9.107
		c-6.745-1.12-9.815-6.215-7.622-12.686c0.51-1.499,1.088-2.975,1.751-4.775c-4.989,0.463-9.999,3.347-14.503-0.687
		c-4.675-4.187-2.416-8.954-0.793-14.156c-4.992,0.483-9.98,3.441-14.227-1.265C40.461,197.815,42.586,193.178,44.279,188.227z"/>
</g>
<path fill-rule="evenodd" clip-rule="evenodd" d="M-294.344,255.454c-3.271-1.124-6.747-1.853-9.77-3.444
	c-9.233-4.862-14.307-12.754-14.853-23.137c-0.417-7.92-0.146-15.877-0.151-23.818c-0.011-15.761,0.043-31.523-0.019-47.284
	c-0.034-8.772,2.848-16.271,9.39-22.192c4.79-4.335,10.492-6.688,16.947-7.142c1.318-0.093,2.646-0.062,3.969-0.062
	c36.816-0.003,73.635-0.028,110.451,0.013c10.775,0.012,19.066,4.7,24.744,13.855c2.761,4.452,3.918,9.404,3.92,14.621
	c0.008,23.341,0.103,46.683-0.041,70.024c-0.074,12.159-5.877,20.948-16.863,26.138c-2.456,1.16-5.234,1.638-7.865,2.429
	C-214.438,255.454-254.392,255.454-294.344,255.454z M-241.59,208.64c0.061,0,0.121,0,0.182,0c0,4.146-0.33,8.326,0.081,12.433
	c0.562,5.595,6.947,7.991,11.358,4.505c2.188-1.729,2.728-4.146,2.729-6.765c0.003-6.798,0.029-13.597-0.023-20.394
	c-0.01-1.276,0.378-2.076,1.451-2.82c2.664-1.845,4.414-4.404,5.105-7.595c1.312-6.057-1.076-12.021-6.232-15.147
	c-4.521-2.742-10.628-3.378-16.332,1.05c-7.082,5.498-6.971,16.622,0.346,21.761c1.006,0.707,1.386,1.474,1.36,2.685
	C-241.637,201.781-241.59,205.21-241.59,208.64z"/>
<path fill-rule="evenodd" clip-rule="evenodd" d="M-230.082,29.454c3.532,0.693,7.113,1.201,10.587,2.117
	c8.812,2.325,16.526,6.699,23.249,12.871c8.728,8.012,14.374,17.832,16.925,29.335c0.878,3.957,1.175,8.103,1.231,12.169
	c0.158,11.547,0.058,23.099,0.051,34.648c0,0.525-0.07,1.051-0.115,1.663c-0.635,0.045-1.16,0.116-1.687,0.116
	c-8.121,0.006-16.242-0.029-24.362,0.033c-1.481,0.011-1.955-0.406-1.946-1.922c0.058-10.948,0.03-21.896,0.03-32.844
	c0-6.001-1.241-11.61-4.439-16.834c-5.68-9.278-17.987-14.952-28.789-12.666c-11.915,2.522-19.592,9.749-22.564,21.629
	c-0.647,2.588-0.742,5.361-0.763,8.052c-0.081,10.827-0.07,21.655,0.004,32.482c0.012,1.688-0.495,2.124-2.136,2.108
	c-7.999-0.078-16-0.033-24.001-0.039c-0.585,0-1.171-0.059-1.987-0.102c0-0.751,0-1.393,0-2.035c0-11.129,0.077-22.258-0.022-33.386
	c-0.088-9.896,2.052-19.23,6.837-27.875c5.835-10.54,14.163-18.518,25.043-23.827c6.075-2.965,12.487-4.603,19.148-5.436
	c0.353-0.044,0.695-0.171,1.042-0.26C-235.859,29.454-232.971,29.454-230.082,29.454z"/>
<path fill-rule="evenodd" clip-rule="evenodd" fill="#FFFFFF" d="M-241.59,208.64c0-3.43-0.047-6.859,0.024-10.287
	c0.025-1.211-0.354-1.978-1.36-2.685c-7.316-5.14-7.428-16.264-0.346-21.761c5.704-4.428,11.811-3.792,16.332-1.05
	c5.156,3.126,7.545,9.09,6.232,15.147c-0.691,3.191-2.441,5.75-5.105,7.595c-1.073,0.744-1.461,1.544-1.451,2.82
	c0.053,6.797,0.026,13.596,0.023,20.394c-0.001,2.619-0.541,5.036-2.729,6.765c-4.411,3.486-10.797,1.09-11.358-4.505
	c-0.411-4.106-0.081-8.286-0.081-12.433C-241.469,208.64-241.529,208.64-241.59,208.64z"/>
<g>
	<path fill-rule="evenodd" clip-rule="evenodd" d="M-1147.751,164.527c-1.997,0.54-3.888,1.173-5.829,1.535
		c-1.447,0.27-1.981,1.015-2.181,2.375c-0.271,1.852-0.827,3.665-1.045,5.519c-0.168,1.437-0.841,1.706-2.141,1.699
		c-8.955-0.048-17.911,0.002-26.866-0.055c-1.308-0.008-1.879,0.389-2.292,1.646c-1.843,5.595-4.993,10.324-9.754,13.875
		c-7.852,5.856-17.824,5.778-25.602-0.182c-4.662-3.574-7.725-8.292-9.558-13.81c-0.406-1.22-0.968-1.524-2.18-1.524
		c-50.284,0.029-100.567,0.03-150.851,0c-1.221,0-1.775,0.323-2.175,1.537c-1.776,5.404-4.763,10.035-9.272,13.583
		c-8.004,6.297-18.293,6.317-26.322,0.059c-4.528-3.53-7.524-8.153-9.321-13.549c-0.419-1.26-0.989-1.636-2.285-1.632
		c-15.369,0.044-30.739-0.004-46.108,0.07c-1.876,0.009-2.902-0.303-3.028-2.41c-0.096-1.613-0.674-3.191-0.912-4.803
		c-0.197-1.334-0.68-2.131-2.156-2.397c-1.946-0.351-3.84-0.992-5.86-1.536c0-6.612-0.012-13.14,0.03-19.667
		c0.002-0.367,0.405-0.771,0.702-1.08c0.194-0.203,0.522-0.314,0.811-0.386c4.877-1.217,7.278-4.391,8.541-9.246
		c1.593-6.123,4.032-12.022,6.019-18.046c0.397-1.207,0.982-1.732,2.241-1.871c15.509-1.707,31.012-3.471,46.521-5.17
		c1.431-0.157,2.357-0.618,3.137-1.936c8.161-13.786,16.411-27.519,24.595-41.291c0.626-1.053,1.289-1.477,2.55-1.476
		c37.879,0.037,75.758,0.037,113.637,0.001c1.227-0.001,1.987,0.438,2.769,1.302c10.884,12.021,21.78,24.03,32.741,35.98
		c0.733,0.799,1.955,1.43,3.031,1.591c18.717,2.796,37.445,5.51,56.173,8.236c8.735,1.271,17.469,2.558,26.214,3.764
		c1.488,0.205,2.25,0.648,2.625,2.276c1.654,7.183,3.536,14.314,5.234,21.488c0.289,1.224,0.868,1.856,1.963,2.301
		c1.735,0.705,3.446,1.478,5.119,2.318c0.451,0.226,1.037,0.793,1.041,1.209C-1147.73,151.351-1147.751,157.88-1147.751,164.527z"/>
</g>
<g>
	<path d="M-705.11,99.165c0-2.747,0-5.494,0-8.241c0.139-0.573,0.271-1.148,0.42-1.72c0.825-3.168,1.493-6.389,2.526-9.488
		c1.126-3.376,3.976-3.957,6.495-1.459c6.091,6.039,12.126,12.135,18.239,18.152c0.559,0.55,1.525,1.001,2.287,0.979
		c4.414-0.123,8.823-0.425,13.236-0.61c1.105-0.047,1.567-0.423,1.61-1.587c0.163-4.414,0.454-8.823,0.601-13.237
		c0.023-0.68-0.284-1.545-0.744-2.037c-1.998-2.131-4.11-4.154-6.179-6.219c-4.093-4.088-8.214-8.149-12.269-12.277
		c-2.426-2.47-1.843-5.12,1.331-6.499c0.383-0.166,0.773-0.316,1.17-0.442c4.397-1.398,8.856-2.368,13.511-2.384
		c14.602-0.05,26.497,5.604,35.195,17.291c8.396,11.277,10.439,23.954,6.838,37.515c-0.361,1.363-0.115,2.208,0.876,3.117
		c7.146,6.541,13.218,14.194,21.005,20.088c2.213,1.676,4.019,3.894,5.983,5.891c3.216,3.27,6.409,6.56,9.637,9.867
		c0.598-0.508,0.979-0.79,1.311-1.12c5.528-5.515,11.054-11.035,16.575-16.558c6.913-6.914,13.822-13.83,20.731-20.745
		c6.91-6.916,13.808-13.845,20.745-20.734c0.802-0.797,0.893-1.371,0.375-2.429c-2.324-4.759-2.189-9.524,0.211-14.265
		c1.552-3.064,4.283-4.896,6.864-6.906c5.968-4.648,11.925-9.31,17.915-13.929c1.461-1.127,2.999-1.047,4.412,0.154
		c1.043,0.887,2.021,1.854,2.976,2.838c3.48,3.59,6.938,7.203,10.405,10.806c0,0.717,0,1.433,0,2.15
		c-5.71,7.336-11.416,14.674-17.129,22.008c-4.238,5.443-12.488,7.343-18.574,4.13c-1.292-0.682-1.936-0.426-2.844,0.487
		c-8.783,8.84-17.601,17.646-26.412,26.457c-8.266,8.262-16.523,16.532-24.813,24.769c-2.526,2.509-5.149,4.92-7.76,7.406
		c0.579,0.694,0.827,1.021,1.105,1.32c5.538,5.957,11.626,11.354,16.851,17.657c4.436,5.35,9.789,9.937,14.693,14.903
		c0.775,0.783,1.428,0.985,2.509,0.633c1.751-0.569,3.563-1.01,5.382-1.298c13.46-2.135,25.397,1.131,35.737,10.108
		c13.551,11.763,18.003,31.076,11.668,47.503c-1.267,3.283-4.052,3.943-6.519,1.471c-6.066-6.082-12.129-12.168-18.225-18.221
		c-0.464-0.461-1.191-0.967-1.781-0.947c-4.999,0.156-9.994,0.432-15.197,0.682c-0.246,4.301-0.253,8.486-0.806,12.598
		c-0.361,2.678,0.646,4.281,2.421,6.004c5.611,5.439,11.107,11,16.599,16.564c2.751,2.787,2.189,5.305-1.438,6.676
		c-10.076,3.807-20.199,3.814-30.282,0.098c-9.229-3.404-16.372-9.428-21.503-17.791c-3.746-6.105-5.813-12.762-6.203-19.941
		c-0.262-4.814,0.095-9.545,1.527-14.154c0.355-1.141,0.086-1.838-0.792-2.629c-1.679-1.514-3.22-3.182-4.8-4.803
		c-3.314-3.406-6.617-6.826-9.985-10.301c-0.676,0.576-1.051,0.852-1.376,1.178c-17.725,17.721-35.458,35.436-53.155,53.184
		c-3.698,3.709-7.923,6.6-12.954,7.988c-8.65,2.389-16.936,1.365-24.522-3.619c-6.008-3.951-10.189-9.432-11.999-16.383
		c-2.949-11.332-0.105-21.217,8.2-29.514c17.481-17.464,34.952-34.94,52.426-52.414c0.535-0.536,1.044-1.101,1.689-1.784
		c-6.356-6.339-12.58-12.575-18.87-18.742c-0.361-0.356-1.317-0.358-1.905-0.197c-10.593,2.908-20.917,2.375-30.854-2.483
		c-12.142-5.936-19.804-15.557-23.132-28.635C-704.344,103.138-704.692,101.143-705.11,99.165z M-610.611,183.226
		c-0.922-1.104-1.534-2.377-2.542-2.925c-1.643-0.893-3.188-0.134-4.486,1.168c-15.256,15.294-30.526,30.574-45.788,45.861
		c-0.714,0.717-1.467,1.422-2.038,2.246c-0.946,1.363-0.727,3.191,0.372,4.277c1.238,1.225,2.941,1.4,4.405,0.33
		c0.812-0.592,1.525-1.332,2.242-2.047c8.902-8.896,17.799-17.799,26.694-26.703c6.326-6.33,12.663-12.647,18.949-19.015
		C-612.006,185.611-611.489,184.525-610.611,183.226z M-654.522,243.707c2.298-0.258,3.295-1.752,4.454-2.904
		c8.408-8.379,16.799-16.779,25.188-25.178c6.999-7.004,14.004-14.004,20.978-21.037c1.665-1.68,1.688-3.82,0.203-5.238
		c-1.431-1.365-3.399-1.255-5.075,0.409c-6.551,6.506-13.071,13.043-19.606,19.565c-6.83,6.814-13.666,13.623-20.491,20.445
		c-2.57,2.568-5.132,5.146-7.668,7.75c-1.05,1.078-1.499,2.496-0.71,3.762C-656.633,242.271-655.453,242.912-654.522,243.707z
		 M-624.16,169.682c-1.305,0.865-2.405,1.362-3.207,2.161c-12.844,12.785-25.65,25.608-38.464,38.423
		c-2.951,2.951-5.925,5.881-8.837,8.871c-1.498,1.537-1.519,3.625-0.183,4.965c1.425,1.428,3.301,1.41,4.944-0.07
		c0.576-0.518,1.123-1.068,1.67-1.617c11.549-11.551,23.096-23.102,34.641-34.658c3.877-3.88,7.746-7.767,11.616-11.654
		c1.125-1.129,1.615-2.559,0.763-3.89C-621.852,171.219-623.059,170.594-624.16,169.682z"/>
	<path fill-rule="evenodd" clip-rule="evenodd" fill="#FFFFFF" d="M-610.611,183.226c-0.878,1.3-1.395,2.385-2.191,3.192
		c-6.286,6.368-12.623,12.685-18.949,19.015c-8.896,8.904-17.792,17.807-26.694,26.703c-0.717,0.715-1.431,1.455-2.242,2.047
		c-1.464,1.07-3.167,0.895-4.405-0.33c-1.099-1.086-1.318-2.914-0.372-4.277c0.571-0.824,1.324-1.529,2.038-2.246
		c15.262-15.287,30.532-30.566,45.788-45.861c1.299-1.302,2.844-2.061,4.486-1.168
		C-612.146,180.848-611.533,182.122-610.611,183.226z"/>
	<path fill-rule="evenodd" clip-rule="evenodd" fill="#FFFFFF" d="M-654.522,243.707c-0.931-0.795-2.11-1.436-2.728-2.426
		c-0.789-1.266-0.34-2.684,0.71-3.762c2.536-2.604,5.098-5.182,7.668-7.75c6.825-6.822,13.661-13.631,20.491-20.445
		c6.535-6.521,13.056-13.059,19.606-19.565c1.676-1.664,3.645-1.774,5.075-0.409c1.484,1.418,1.462,3.559-0.203,5.238
		c-6.974,7.033-13.979,14.033-20.978,21.037c-8.39,8.398-16.78,16.799-25.188,25.178
		C-651.228,241.955-652.225,243.449-654.522,243.707z"/>
	<path fill-rule="evenodd" clip-rule="evenodd" fill="#FFFFFF" d="M-624.16,169.682c1.102,0.912,2.309,1.537,2.943,2.53
		c0.853,1.332,0.362,2.761-0.763,3.89c-3.87,3.887-7.739,7.774-11.616,11.654c-11.545,11.556-23.092,23.107-34.641,34.658
		c-0.547,0.549-1.094,1.1-1.67,1.617c-1.644,1.48-3.52,1.498-4.944,0.07c-1.336-1.34-1.315-3.428,0.183-4.965
		c2.912-2.99,5.886-5.92,8.837-8.871c12.813-12.814,25.62-25.638,38.464-38.423C-626.565,171.043-625.465,170.546-624.16,169.682z"
		/>
</g>
<g>
	<path fill-rule="evenodd" clip-rule="evenodd" d="M-1668.915,200.18c-0.343-0.156-0.673-0.356-1.03-0.461
		c-3.416-0.991-5.399-3.293-5.978-6.742c-0.277-1.659-0.372-3.367-0.372-5.052c-0.019-52.087-0.016-104.177-0.016-156.267
		c0-0.829,0-1.658,0-2.624c-1.678,0-3.128,0-4.832,0c0,0.93,0,1.757,0,2.584c0.001,18.557,0.005,37.114-0.009,55.671
		c-0.001,1.102-0.069,2.216-0.237,3.304c-0.576,3.736-3.791,6.359-7.538,6.214c-4.092-0.16-7.077-2.948-7.387-6.896
		c-0.01-0.13-0.024-0.26-0.024-0.39c0.018-21.55,0.009-43.101,0.07-64.652c0.029-10.211,7.666-18.14,17.117-20.314
		c3.205-0.738,6.552-1.142,9.84-1.178c12.305-0.134,24.613-0.111,36.918-0.025c5.287,0.037,10.538,0.538,15.297,3.215
		c6.509,3.661,10.269,9.217,11.316,16.586c0.229,1.605,0.272,3.247,0.273,4.873c0.018,19.794,0.006,39.588,0.015,59.382
		c0.001,2.854-0.224,5.632-2.466,7.743c-2.068,1.948-4.467,2.981-7.311,1.984c-3.062-1.074-4.615-3.475-5.185-6.538
		c-0.235-1.27-0.279-2.59-0.28-3.887c-0.017-18.362-0.012-36.724-0.012-55.085c0-0.828,0-1.655,0-2.594c-1.695,0-3.146,0-4.832,0
		c0,1.029,0,1.922,0,2.815c0,51.765,0,103.529,0,155.29c0,0.456-0.013,0.913,0.001,1.368c0.171,5.563-1.384,10.03-7.396,11.675
		c-1.823,0-3.647,0-5.47,0c-0.214-0.132-0.411-0.325-0.643-0.386c-4.04-1.052-6.11-3.724-6.438-7.816
		c-0.119-1.488-0.241-2.983-0.241-4.474c-0.015-27.458-0.012-54.917-0.012-82.378c0-3.058-0.036-6.117,0.016-9.174
		c0.021-1.168-0.387-1.646-1.576-1.615c-2.081,0.055-4.164,0.008-6.246,0.012c-2.527,0.005-2.532,0.008-2.532,2.582
		c-0.001,30.193,0,60.386,0,90.576c0,0.651,0.034,1.305-0.009,1.952c-0.36,5.502-1.027,8.705-7.204,10.571
		c-0.051,0.015-0.081,0.099-0.12,0.15C-1665.268,200.18-1667.092,200.18-1668.915,200.18z"/>
	<path fill-rule="evenodd" clip-rule="evenodd" d="M-1648.989-44.394c4.386,0.953,8.346,2.643,11.688,5.813
		c6.097,5.782,8.002,16.618,4.231,24.162c-5.177,10.358-15.481,14.126-25.756,10.43c-8.445-3.04-14.312-11.396-13.373-20.981
		c1.01-10.306,7.354-16.977,17.61-19.171c0.183-0.039,0.348-0.167,0.52-0.253C-1652.375-44.394-1650.684-44.394-1648.989-44.394z"/>
</g>
<g>
	<path fill="#FFFFFF" d="M-987.19,124.897c-3.501,2.703-6.44,4.974-9.863,7.617c4.208,1.35,7.748,2.485,11.813,3.789
		c-2.953,3.208-5.481,5.956-8.377,9.104c4.382,0.628,8.062,1.156,12.254,1.757c-2.298,3.724-4.222,6.84-6.287,10.187
		c4.316,0,7.924,0,12.061,0c-1.554,3.786-2.962,7.219-4.589,11.184c4.202-0.834,7.831-1.554,11.995-2.38
		c-0.905,4.303-1.657,7.877-2.53,12.028c4.171-1.75,7.595-3.187,11.521-4.833c-0.216,4.47-0.393,8.12-0.603,12.462
		c3.982-2.47,7.104-4.407,10.543-6.539c0.626,4.49,1.132,8.11,1.732,12.416c3.392-3.211,6.089-5.765,9.105-8.62
		c1.349,4.411,2.443,7.993,3.729,12.2c2.761-3.592,5.033-6.548,7.659-9.965c2.054,3.967,3.785,7.314,5.743,11.098
		c2.043-3.819,3.857-7.21,5.868-10.969c2.702,3.439,4.962,6.315,7.627,9.708c1.37-4.388,2.438-7.807,3.722-11.918
		c3.16,2.946,5.893,5.492,9.162,8.54c0.635-4.437,1.171-8.177,1.778-12.424c3.767,2.397,6.773,4.31,10.323,6.569
		c0-4.534,0-8.109,0-12.144c3.733,1.48,7.061,2.799,10.971,4.349c-0.801-4.201-1.488-7.812-2.264-11.881
		c4.252,0.858,7.777,1.569,11.832,2.388c-1.629-3.983-3.038-7.429-4.631-11.32c4.184,0,7.865,0,12.059,0
		c-2.17-3.488-4.053-6.515-6.29-10.109c4.266-0.619,7.926-1.15,12.226-1.773c-2.945-3.21-5.472-5.963-8.375-9.125
		c4.147-1.324,7.69-2.456,11.818-3.773c-3.493-2.723-6.428-5.01-9.717-7.573c3.844-2.067,7.137-3.839,10.854-5.839
		c-3.854-2.014-7.193-3.761-10.949-5.724c3.403-2.644,6.336-4.921,9.794-7.607c-4.286-1.376-7.817-2.511-11.847-3.806
		c2.998-3.212,5.553-5.947,8.491-9.097c-4.409-0.641-8.084-1.176-12.276-1.785c2.268-3.669,4.215-6.817,6.298-10.187
		c-4.308,0-8.015,0-12.167,0c1.654-3.887,3.106-7.3,4.775-11.223c-4.299,0.894-7.924,1.646-12.133,2.521
		c0.896-4.262,1.631-7.755,2.5-11.891c-4.07,1.585-7.469,2.908-11.281,4.395c0-4.467,0-8.132,0-12.007
		c-3.503,2.174-6.645,4.125-10.179,6.319c-0.602-4.379-1.089-7.922-1.663-12.101c-3.268,2.909-6.047,5.384-9.229,8.216
		c-1.281-4.155-2.379-7.713-3.655-11.85c-2.724,3.506-5.016,6.458-7.621,9.813c-2.034-3.796-3.792-7.076-5.776-10.778
		c-2.066,3.81-3.836,7.073-5.83,10.75c-2.703-3.453-4.958-6.335-7.592-9.7c-1.354,4.241-2.445,7.656-3.728,11.67
		c-3.208-2.861-5.989-5.341-9.146-8.156c-0.658,4.284-1.218,7.931-1.848,12.032c-3.649-2.243-6.704-4.121-10.242-6.295
		c0,4.271,0,7.946,0,12.009c-3.809-1.521-7.233-2.89-11.122-4.443c0.89,4.303,1.611,7.795,2.473,11.963
		c-4.295-0.896-7.867-1.64-12.039-2.51c1.772,4.213,3.203,7.612,4.811,11.431c-4.492,0-8.145,0-12.209,0
		c2.205,3.48,4.111,6.487,6.321,9.976c-4.374,0.644-7.98,1.174-12.279,1.806c3.113,3.406,5.595,6.122,8.41,9.202
		c-4.32,1.325-7.781,2.387-12.001,3.681c3.614,2.72,6.595,4.961,10.124,7.617c-3.937,2.048-7.246,3.77-11.126,5.788
		C-994.41,121.14-991.195,122.813-987.19,124.897z M-922.821,200.31c-10.99-0.324-21.06-2.034-30.122-8.812
		c-4.818,13.638-9.369,26.521-14.172,40.115c5.51-0.878,10.207-1.871,14.955-2.258c1.823-0.148,4.232,0.574,5.55,1.792
		c3.096,2.861,5.693,6.261,9.138,10.177C-932.311,226.874-927.731,214.054-922.821,200.31z M-875.34,231.67
		c-4.886-13.808-9.452-26.712-14.298-40.405c-8.956,7.329-19.197,8.532-29.942,9.12c4.846,13.588,9.456,26.512,14.312,40.127
		c2.947-2.995,5.689-5.414,7.975-8.207c2.386-2.915,4.946-3.877,8.667-2.928C-884.645,230.393-880.508,230.809-875.34,231.67z"/>
	<path fill-rule="evenodd" clip-rule="evenodd" d="M-987.19,124.897c-4.005-2.084-7.22-3.757-11.071-5.76
		c3.88-2.019,7.189-3.74,11.126-5.788c-3.529-2.656-6.51-4.897-10.124-7.617c4.22-1.294,7.681-2.355,12.001-3.681
		c-2.815-3.08-5.297-5.796-8.41-9.202c4.299-0.632,7.905-1.162,12.279-1.806c-2.21-3.488-4.116-6.495-6.321-9.976
		c4.064,0,7.717,0,12.209,0c-1.607-3.818-3.038-7.218-4.811-11.431c4.172,0.87,7.744,1.614,12.039,2.51
		c-0.861-4.168-1.583-7.66-2.473-11.963c3.889,1.554,7.313,2.922,11.122,4.443c0-4.062,0-7.738,0-12.009
		c3.538,2.174,6.593,4.052,10.242,6.295c0.63-4.101,1.189-7.748,1.848-12.032c3.157,2.815,5.938,5.295,9.146,8.156
		c1.282-4.014,2.373-7.429,3.728-11.67c2.634,3.365,4.889,6.247,7.592,9.7c1.994-3.677,3.764-6.94,5.83-10.75
		c1.984,3.702,3.742,6.982,5.776,10.778c2.605-3.355,4.897-6.307,7.621-9.813c1.276,4.137,2.374,7.694,3.655,11.85
		c3.182-2.833,5.961-5.307,9.229-8.216c0.574,4.178,1.062,7.721,1.663,12.101c3.534-2.194,6.676-4.145,10.179-6.319
		c0,3.875,0,7.54,0,12.007c3.812-1.486,7.211-2.81,11.281-4.395c-0.869,4.136-1.604,7.629-2.5,11.891
		c4.209-0.875,7.834-1.628,12.133-2.521c-1.669,3.923-3.121,7.336-4.775,11.223c4.152,0,7.859,0,12.167,0
		c-2.083,3.369-4.03,6.518-6.298,10.187c4.192,0.609,7.867,1.145,12.276,1.785c-2.938,3.149-5.493,5.885-8.491,9.097
		c4.029,1.295,7.561,2.43,11.847,3.806c-3.458,2.687-6.391,4.964-9.794,7.607c3.756,1.963,7.096,3.71,10.949,5.724
		c-3.717,2-7.01,3.771-10.854,5.839c3.289,2.563,6.224,4.851,9.717,7.573c-4.128,1.317-7.671,2.449-11.818,3.773
		c2.903,3.162,5.43,5.915,8.375,9.125c-4.3,0.623-7.96,1.154-12.226,1.773c2.237,3.595,4.12,6.621,6.29,10.109
		c-4.193,0-7.875,0-12.059,0c1.593,3.892,3.002,7.337,4.631,11.32c-4.055-0.818-7.58-1.529-11.832-2.388
		c0.775,4.069,1.463,7.68,2.264,11.881c-3.91-1.55-7.237-2.868-10.971-4.349c0,4.034,0,7.609,0,12.144
		c-3.55-2.26-6.557-4.172-10.323-6.569c-0.607,4.247-1.144,7.987-1.778,12.424c-3.27-3.048-6.002-5.594-9.162-8.54
		c-1.283,4.111-2.352,7.53-3.722,11.918c-2.665-3.393-4.925-6.269-7.627-9.708c-2.011,3.759-3.825,7.149-5.868,10.969
		c-1.958-3.783-3.689-7.131-5.743-11.098c-2.626,3.417-4.898,6.373-7.659,9.965c-1.286-4.207-2.381-7.789-3.729-12.2
		c-3.017,2.855-5.714,5.409-9.105,8.62c-0.601-4.306-1.106-7.926-1.732-12.416c-3.438,2.132-6.561,4.069-10.543,6.539
		c0.21-4.342,0.387-7.992,0.603-12.462c-3.926,1.646-7.35,3.083-11.521,4.833c0.873-4.151,1.625-7.726,2.53-12.028
		c-4.164,0.826-7.793,1.546-11.995,2.38c1.627-3.965,3.035-7.397,4.589-11.184c-4.137,0-7.744,0-12.061,0
		c2.065-3.347,3.989-6.463,6.287-10.187c-4.191-0.601-7.872-1.129-12.254-1.757c2.896-3.147,5.424-5.896,8.377-9.104
		c-4.065-1.304-7.605-2.439-11.813-3.789C-993.631,129.871-990.691,127.6-987.19,124.897z M-860.857,119.319
		c0.039-33.235-26.971-60.418-60.221-60.606c-32.967-0.188-60.591,27.256-60.656,60.259c-0.066,33.31,27.358,60.636,60.811,60.591
		C-888.095,179.518-860.896,152.24-860.857,119.319z"/>
	<path fill-rule="evenodd" clip-rule="evenodd" d="M-922.821,200.31c-4.91,13.744-9.489,26.563-14.651,41.014
		c-3.444-3.916-6.042-7.315-9.138-10.177c-1.317-1.218-3.727-1.94-5.55-1.792c-4.748,0.387-9.445,1.38-14.955,2.258
		c4.803-13.594,9.354-26.478,14.172-40.115C-943.881,198.276-933.812,199.986-922.821,200.31z"/>
	<path fill-rule="evenodd" clip-rule="evenodd" d="M-875.34,231.67c-5.168-0.861-9.305-1.277-13.287-2.293
		c-3.721-0.949-6.281,0.013-8.667,2.928c-2.285,2.793-5.027,5.212-7.975,8.207c-4.855-13.615-9.466-26.539-14.312-40.127
		c10.745-0.588,20.986-1.791,29.942-9.12C-884.792,204.958-880.226,217.863-875.34,231.67z"/>
	<path fill-rule="evenodd" clip-rule="evenodd" fill="#FFFFFF" d="M-860.857,119.319c-0.038,32.921-27.237,60.199-60.066,60.243
		c-33.452,0.045-60.877-27.281-60.811-60.591c0.065-33.003,27.689-60.446,60.656-60.259
		C-887.828,58.901-860.818,86.083-860.857,119.319z M-921.438,173.786c30.213,0.161,54.678-24.149,54.781-54.437
		c0.104-30.146-23.898-54.537-53.903-54.774c-30.658-0.243-55.244,23.934-55.311,54.39
		C-975.936,149.269-951.754,173.625-921.438,173.786z"/>
	<path fill-rule="evenodd" clip-rule="evenodd" d="M-921.438,173.786c-30.316-0.161-54.498-24.517-54.433-54.821
		c0.066-30.456,24.652-54.633,55.311-54.39c30.005,0.237,54.007,24.628,53.903,54.774
		C-866.76,149.636-891.225,173.947-921.438,173.786z M-873.581,119.531c0.207-26.358-20.925-47.875-47.166-48.023
		c-26.513-0.149-47.931,20.757-48.169,47.02c-0.242,26.638,20.905,48.186,47.415,48.312
		C-895.148,166.964-873.789,145.877-873.581,119.531z"/>
	<path fill-rule="evenodd" clip-rule="evenodd" d="M-924.64,110.25c-2.839,0.713-5.045,1.267-7.27,1.825
		c-0.701-2.239-2.172-6.728-2.172-6.728s14.585-7.128,19.905-7.128c0,8.986,0,19.367,0,29.148c2.918,0.166,5.345,0.305,8.186,0.467
		c0,2.412,0,4.791,0,7.509c-8.887,0-17.932,0-27.236,0c0-2.481,0-4.737,0-7.426c2.93-0.219,5.806-0.435,8.587-0.643
		C-924.64,121.469-924.64,115.995-924.64,110.25z"/>
	<polygon fill-rule="evenodd" clip-rule="evenodd" points="-923.348,148.74 -920.638,142.022 -916.953,148.259 -909.727,148.759 
		-914.52,154.191 -912.764,161.219 -919.41,158.337 -925.553,162.18 -924.866,154.969 -930.418,150.316 	"/>
</g>
</svg>
