<?xml version="1.0" encoding="utf-8"?>
<!-- Generator: Adobe Illustrator 16.0.0, SVG Export Plug-In . SVG Version: 6.00 Build 0)  -->
<!DOCTYPE svg PUBLIC "-//W3C//DTD SVG 1.1//EN" "http://www.w3.org/Graphics/SVG/1.1/DTD/svg11.dtd">
<svg version="1.1" id="Layer_1" xmlns="http://www.w3.org/2000/svg" xmlns:xlink="http://www.w3.org/1999/xlink" x="0px" y="0px"
	 width="245.951px" height="277.356px" viewBox="0 0 245.951 277.356" enable-background="new 0 0 245.951 277.356"
	 xml:space="preserve">
<g>
	<path d="M8.747,93.167c0-2.747,0-5.494,0-8.241c0.139-0.573,0.271-1.148,0.42-1.72c0.825-3.168,1.493-6.389,2.526-9.488
		c1.126-3.376,3.976-3.957,6.495-1.459c6.091,6.039,12.126,12.135,18.239,18.152c0.559,0.55,1.525,1.001,2.287,0.979
		c4.414-0.123,8.823-0.425,13.236-0.61c1.105-0.047,1.567-0.423,1.61-1.587c0.163-4.414,0.454-8.823,0.601-13.237
		c0.023-0.68-0.284-1.545-0.744-2.037c-1.998-2.131-4.11-4.154-6.179-6.219c-4.093-4.088-8.214-8.149-12.269-12.277
		c-2.426-2.47-1.843-5.12,1.331-6.499c0.383-0.166,0.773-0.316,1.17-0.442c4.397-1.398,8.856-2.368,13.511-2.384
		c14.602-0.05,26.497,5.604,35.195,17.291c8.396,11.277,10.439,23.954,6.838,37.515c-0.361,1.363-0.115,2.208,0.876,3.117
		c7.146,6.541,13.218,14.194,21.005,20.088c2.213,1.676,4.019,3.894,5.983,5.891c3.216,3.27,6.409,6.56,9.637,9.867
		c0.598-0.508,0.979-0.79,1.311-1.12c5.528-5.515,11.054-11.035,16.575-16.558c6.913-6.914,13.822-13.83,20.731-20.745
		c6.91-6.916,13.808-13.845,20.745-20.734c0.802-0.797,0.893-1.371,0.375-2.429c-2.324-4.759-2.189-9.524,0.211-14.265
		c1.552-3.064,4.283-4.896,6.864-6.906c5.968-4.648,11.925-9.31,17.915-13.929c1.461-1.127,2.999-1.047,4.412,0.154
		c1.043,0.887,2.021,1.854,2.976,2.838c3.48,3.59,6.938,7.203,10.405,10.806c0,0.717,0,1.433,0,2.15
		c-5.71,7.336-11.416,14.674-17.129,22.008c-4.238,5.443-12.488,7.343-18.574,4.13c-1.292-0.682-1.936-0.426-2.844,0.487
		c-8.783,8.84-17.601,17.646-26.412,26.457c-8.266,8.262-16.523,16.532-24.813,24.769c-2.526,2.509-5.149,4.92-7.76,7.406
		c0.579,0.694,0.827,1.021,1.105,1.32c5.538,5.957,11.626,11.354,16.851,17.657c4.436,5.35,9.789,9.937,14.693,14.903
		c0.775,0.783,1.428,0.985,2.509,0.633c1.751-0.569,3.563-1.01,5.382-1.298c13.46-2.135,25.397,1.131,35.737,10.108
		c13.551,11.763,18.003,31.076,11.668,47.503c-1.267,3.283-4.052,3.943-6.519,1.471c-6.066-6.082-12.129-12.168-18.225-18.221
		c-0.464-0.461-1.191-0.967-1.781-0.947c-4.999,0.156-9.994,0.432-15.197,0.682c-0.246,4.301-0.253,8.486-0.806,12.598
		c-0.361,2.678,0.646,4.281,2.421,6.004c5.611,5.439,11.107,11,16.599,16.564c2.751,2.787,2.189,5.305-1.438,6.676
		c-10.076,3.807-20.199,3.814-30.282,0.098c-9.229-3.404-16.372-9.428-21.503-17.791c-3.746-6.105-5.813-12.762-6.203-19.941
		c-0.262-4.814,0.095-9.545,1.527-14.154c0.355-1.141,0.086-1.838-0.792-2.629c-1.679-1.514-3.22-3.182-4.8-4.803
		c-3.314-3.406-6.617-6.826-9.985-10.301c-0.676,0.576-1.051,0.852-1.376,1.178c-17.725,17.721-35.458,35.436-53.155,53.184
		c-3.698,3.709-7.923,6.6-12.954,7.988c-8.65,2.389-16.936,1.365-24.522-3.619c-6.008-3.951-10.189-9.432-11.999-16.383
		c-2.949-11.332-0.105-21.217,8.2-29.514c17.481-17.464,34.952-34.94,52.426-52.414c0.535-0.536,1.044-1.101,1.689-1.784
		c-6.356-6.339-12.58-12.575-18.87-18.742c-0.361-0.356-1.317-0.358-1.905-0.197c-10.593,2.908-20.917,2.375-30.854-2.483
		c-12.142-5.936-19.804-15.557-23.132-28.635C9.514,97.139,9.165,95.144,8.747,93.167z M103.246,177.227
		c-0.922-1.104-1.534-2.377-2.542-2.925c-1.643-0.893-3.188-0.134-4.486,1.168c-15.256,15.294-30.526,30.574-45.788,45.861
		c-0.714,0.717-1.467,1.422-2.038,2.246c-0.946,1.363-0.727,3.191,0.372,4.277c1.238,1.225,2.941,1.4,4.405,0.33
		c0.812-0.592,1.525-1.332,2.242-2.047c8.902-8.896,17.799-17.799,26.694-26.703c6.326-6.33,12.663-12.647,18.949-19.015
		C101.852,179.612,102.368,178.527,103.246,177.227z M59.335,237.708c2.298-0.258,3.295-1.752,4.454-2.904
		c8.408-8.379,16.799-16.779,25.188-25.178c6.999-7.004,14.004-14.004,20.978-21.037c1.665-1.68,1.688-3.82,0.203-5.238
		c-1.431-1.365-3.399-1.255-5.075,0.409c-6.551,6.506-13.071,13.043-19.606,19.565c-6.83,6.814-13.666,13.623-20.491,20.445
		c-2.57,2.568-5.132,5.146-7.668,7.75c-1.05,1.078-1.499,2.496-0.71,3.762C57.225,236.272,58.404,236.913,59.335,237.708z
		 M89.697,163.683c-1.305,0.865-2.405,1.362-3.207,2.161c-12.844,12.785-25.65,25.608-38.464,38.423
		c-2.951,2.951-5.925,5.881-8.837,8.871c-1.498,1.537-1.519,3.625-0.183,4.965c1.425,1.428,3.301,1.41,4.944-0.07
		c0.576-0.518,1.123-1.068,1.67-1.617c11.549-11.551,23.096-23.102,34.641-34.658c3.877-3.88,7.746-7.767,11.616-11.654
		c1.125-1.129,1.615-2.559,0.763-3.89C92.006,165.22,90.799,164.595,89.697,163.683z"/>
	<path fill-rule="evenodd" clip-rule="evenodd" fill="#FFFFFF" d="M103.246,177.227c-0.878,1.3-1.395,2.385-2.191,3.192
		c-6.286,6.368-12.623,12.685-18.949,19.015c-8.896,8.904-17.792,17.807-26.694,26.703c-0.717,0.715-1.431,1.455-2.242,2.047
		c-1.464,1.07-3.167,0.895-4.405-0.33c-1.099-1.086-1.318-2.914-0.372-4.277c0.571-0.824,1.324-1.529,2.038-2.246
		c15.262-15.287,30.532-30.566,45.788-45.861c1.299-1.302,2.844-2.061,4.486-1.168C101.712,174.85,102.324,176.124,103.246,177.227z
		"/>
	<path fill-rule="evenodd" clip-rule="evenodd" fill="#FFFFFF" d="M59.335,237.708c-0.931-0.795-2.11-1.436-2.728-2.426
		c-0.789-1.266-0.34-2.684,0.71-3.762c2.536-2.604,5.098-5.182,7.668-7.75c6.825-6.822,13.661-13.631,20.491-20.445
		c6.535-6.521,13.056-13.059,19.606-19.565c1.676-1.664,3.645-1.774,5.075-0.409c1.484,1.418,1.462,3.559-0.203,5.238
		c-6.974,7.033-13.979,14.033-20.978,21.037c-8.39,8.398-16.78,16.799-25.188,25.178C62.63,235.956,61.633,237.45,59.335,237.708z"
		/>
	<path fill-rule="evenodd" clip-rule="evenodd" fill="#FFFFFF" d="M89.697,163.683c1.102,0.912,2.309,1.537,2.943,2.53
		c0.853,1.332,0.362,2.761-0.763,3.89c-3.87,3.887-7.739,7.774-11.616,11.654c-11.545,11.556-23.092,23.107-34.641,34.658
		c-0.547,0.549-1.094,1.1-1.67,1.617c-1.644,1.48-3.52,1.498-4.944,0.07c-1.336-1.34-1.315-3.428,0.183-4.965
		c2.912-2.99,5.886-5.92,8.837-8.871c12.813-12.814,25.62-25.638,38.464-38.423C87.292,165.045,88.393,164.548,89.697,163.683z"/>
</g>
</svg>
