<?xml version="1.0" encoding="utf-8"?>
<!-- Generator: Adobe Illustrator 16.0.0, SVG Export Plug-In . SVG Version: 6.00 Build 0)  -->
<!DOCTYPE svg PUBLIC "-//W3C//DTD SVG 1.1//EN" "http://www.w3.org/Graphics/SVG/1.1/DTD/svg11.dtd">
<svg version="1.1" id="Layer_1" xmlns="http://www.w3.org/2000/svg" xmlns:xlink="http://www.w3.org/1999/xlink" x="0px" y="0px"
	 width="245.951px" height="277.356px" viewBox="0 0 245.951 277.356" enable-background="new 0 0 245.951 277.356"
	 xml:space="preserve">
<path fill-rule="evenodd" clip-rule="evenodd" d="M59.586,243.456c-3.271-1.124-6.747-1.853-9.77-3.444
	c-9.233-4.862-14.307-12.754-14.853-23.137c-0.417-7.92-0.146-15.877-0.151-23.818c-0.011-15.761,0.043-31.523-0.019-47.284
	c-0.034-8.772,2.848-16.271,9.39-22.192c4.79-4.335,10.492-6.688,16.947-7.142c1.318-0.093,2.646-0.062,3.969-0.062
	c36.816-0.003,73.635-0.028,110.451,0.013c10.775,0.012,19.066,4.7,24.744,13.855c2.761,4.452,3.918,9.404,3.92,14.621
	c0.008,23.341,0.103,46.683-0.041,70.024c-0.074,12.159-5.877,20.948-16.863,26.138c-2.456,1.16-5.234,1.638-7.865,2.429
	C139.492,243.456,99.538,243.456,59.586,243.456z M112.34,196.643c0.061,0,0.121,0,0.182,0c0,4.146-0.33,8.326,0.081,12.433
	c0.562,5.595,6.947,7.991,11.358,4.505c2.188-1.729,2.728-4.146,2.729-6.765c0.003-6.798,0.029-13.597-0.023-20.394
	c-0.01-1.276,0.378-2.076,1.451-2.82c2.664-1.845,4.414-4.404,5.105-7.595c1.312-6.057-1.076-12.021-6.232-15.147
	c-4.521-2.742-10.628-3.378-16.332,1.05c-7.082,5.498-6.971,16.622,0.346,21.761c1.006,0.707,1.386,1.474,1.36,2.685
	C112.293,189.783,112.34,193.213,112.34,196.643z"/>
<path fill-rule="evenodd" clip-rule="evenodd" d="M123.848,17.456c3.532,0.693,7.113,1.201,10.587,2.117
	c8.812,2.325,16.526,6.699,23.249,12.871c8.728,8.012,14.374,17.832,16.925,29.335c0.878,3.957,1.175,8.103,1.231,12.169
	c0.158,11.547,0.058,23.099,0.051,34.648c0,0.525-0.07,1.051-0.115,1.663c-0.635,0.045-1.16,0.116-1.687,0.116
	c-8.121,0.006-16.242-0.029-24.362,0.033c-1.481,0.011-1.955-0.406-1.946-1.922c0.058-10.948,0.03-21.896,0.03-32.844
	c0-6.001-1.241-11.61-4.439-16.834c-5.68-9.278-17.987-14.952-28.789-12.666c-11.915,2.522-19.592,9.749-22.564,21.629
	c-0.647,2.588-0.742,5.361-0.763,8.052c-0.081,10.827-0.07,21.655,0.004,32.482c0.012,1.688-0.495,2.124-2.136,2.108
	c-7.999-0.078-16-0.033-24.001-0.039c-0.585,0-1.171-0.059-1.987-0.102c0-0.751,0-1.393,0-2.035c0-11.129,0.077-22.258-0.022-33.386
	c-0.088-9.896,2.052-19.23,6.837-27.875c5.835-10.54,14.163-18.518,25.043-23.827c6.075-2.965,12.487-4.603,19.148-5.436
	c0.353-0.044,0.695-0.171,1.042-0.26C118.07,17.456,120.959,17.456,123.848,17.456z"/>
<path fill-rule="evenodd" clip-rule="evenodd" fill="#FFFFFF" d="M112.34,196.643c0-3.43-0.047-6.859,0.024-10.287
	c0.025-1.211-0.354-1.978-1.36-2.685c-7.316-5.14-7.428-16.264-0.346-21.761c5.704-4.428,11.811-3.792,16.332-1.05
	c5.156,3.126,7.545,9.09,6.232,15.147c-0.691,3.191-2.441,5.75-5.105,7.595c-1.073,0.744-1.461,1.544-1.451,2.82
	c0.053,6.797,0.026,13.596,0.023,20.394c-0.001,2.619-0.541,5.036-2.729,6.765c-4.411,3.486-10.797,1.09-11.358-4.505
	c-0.411-4.106-0.081-8.286-0.081-12.433C112.461,196.643,112.4,196.643,112.34,196.643z"/>
</svg>
