<?xml version="1.0" encoding="utf-8"?>
<!-- Generator: Adobe Illustrator 16.0.0, SVG Export Plug-In . SVG Version: 6.00 Build 0)  -->
<!DOCTYPE svg PUBLIC "-//W3C//DTD SVG 1.1//EN" "http://www.w3.org/Graphics/SVG/1.1/DTD/svg11.dtd">
<svg version="1.1" id="Layer_1" xmlns="http://www.w3.org/2000/svg" xmlns:xlink="http://www.w3.org/1999/xlink" x="0px" y="0px"
	 width="245.951px" height="277.357px" viewBox="0 0 245.951 277.357" enable-background="new 0 0 245.951 277.357"
	 xml:space="preserve">
<g>
	<path fill-rule="evenodd" clip-rule="evenodd" d="M8.214,87.629c7.776,2.692,15.562,5.358,23.325,8.082
		c7.453,2.612,14.178,1.435,21.137-2.41c10.325-5.706,20.871-11.22,31.834-15.505c9.666-3.778,18.965-1.213,27.212,6.19
		c-6.118,3.455-11.95,6.576-17.604,9.991c-4.938,2.983-9.971,5.934-14.441,9.544c-8.129,6.564-9.861,18.327-4.578,27.503
		c5.191,9.02,15.437,13.182,25.273,9.487c8.229-3.09,16.132-7.053,24.166-10.655c7.887-3.536,12.676-2.72,18.801,3.375
		c13.328,13.264,26.635,26.549,39.938,39.838c4.743,4.737,5.124,11,0.957,15.02c-4.115,3.971-9.945,3.587-14.698-1.025
		c-3.944-3.828-7.81-7.737-11.772-11.544c-1.172-1.125-2.562-2.025-3.85-3.028c-0.316,0.277-0.631,0.554-0.945,0.832
		c0.716,1.245,1.239,2.667,2.184,3.705c3.604,3.953,7.311,7.813,11.038,11.65c5.26,5.414,5.804,11.437,1.346,15.688
		c-4.267,4.067-10.248,3.341-15.307-1.73c-5.688-5.702-11.46-11.319-17.195-16.974c-0.403,0.312-0.806,0.625-1.208,0.938
		c0.91,1.45,1.629,3.074,2.764,4.32c3.699,4.064,7.574,7.965,11.332,11.978c4.532,4.838,4.788,10.695,0.709,14.7
		c-4.146,4.071-9.803,3.691-14.619-1.082c-4.52-4.479-8.928-9.073-13.463-13.537c-1.11-1.094-2.526-1.876-3.802-2.801
		c-0.321,0.328-0.64,0.657-0.96,0.984c0.922,1.312,1.711,2.747,2.791,3.912c3.05,3.285,6.285,6.397,9.324,9.692
		c4.678,5.071,4.887,11.116,0.65,15.02c-4.316,3.977-10.014,3.271-14.943-1.679c-2.408-2.414-3.777-4.735-3.723-8.572
		c0.127-8.835-4.338-15.246-12.312-19.317c-1.709-0.872-3.334-2.661-4.133-4.421c-2.312-5.09-5.763-8.839-10.694-11.475
		c-1.612-0.861-3.211-2.426-3.979-4.062c-2.322-4.929-5.803-8.49-10.614-10.978c-1.403-0.726-2.946-1.965-3.541-3.348
		c-3.939-9.185-11.132-13.644-20.743-13.666c-9.63-0.021-17.242,4.239-21.93,12.998c-0.477,0.889-0.971,1.769-1.47,2.645
		c-0.065,0.116-0.207,0.189-0.571,0.509c-3.774-1.134-7.729-2.322-11.683-3.51C8.214,139.15,8.214,113.39,8.214,87.629z"/>
	<path fill-rule="evenodd" clip-rule="evenodd" d="M230.277,95.387c0,22.272,0,44.343,0,67.498
		c-9.004,1.199-18.191,3.044-27.43,3.329c-3.418,0.105-7.566-2.813-10.326-5.455c-14.621-13.994-28.901-28.343-43.309-42.56
		c-6.082-6.002-11.068-6.998-18.795-3.155c-10.08,5.012-19.99,10.367-30.006,15.513c-5.438,2.793-11.263,2.056-15.287-1.779
		c-3.799-3.619-5.309-9.246-2.939-13.881c1.308-2.557,3.469-5.155,5.917-6.575c16.987-9.844,34.261-19.198,51.212-29.101
		c8.234-4.811,15.579-5.164,22.996,1.349c6.838,6.006,14.096,11.54,20.845,17.641c4.654,4.207,9.677,5.31,15.593,3.961
		c9.429-2.149,18.883-4.188,28.331-6.259C228.051,95.7,229.043,95.587,230.277,95.387z"/>
	<path fill-rule="evenodd" clip-rule="evenodd" d="M44.279,188.227c-1.843,0.487-2.684,0.683-3.51,0.932
		c-4.127,1.237-8.047,1.364-11.053-2.381c-2.931-3.654-3.189-7.813-1.136-11.804c1.687-3.276,3.634-6.668,6.276-9.143
		c4.092-3.832,9.221-4.667,14.459-2.033c5.652,2.844,6.773,7.822,6.096,12.622c4.028,1.609,8.59,2.229,11.201,4.817
		c2.508,2.484,2.996,7.009,4.566,11.149c11.211,1.604,14.625,5.573,12.734,16.345c0.698,0,1.342,0.075,1.964-0.012
		c4.852-0.675,8.956,0.731,11.767,4.777c2.904,4.179,2.736,8.736,0.502,13.156c-3.008,5.952-11.738,10.203-18.341,9.107
		c-6.745-1.12-9.815-6.215-7.622-12.686c0.51-1.499,1.088-2.975,1.751-4.775c-4.989,0.463-9.999,3.347-14.503-0.687
		c-4.675-4.187-2.416-8.954-0.793-14.156c-4.992,0.483-9.98,3.441-14.227-1.265C40.461,197.815,42.586,193.178,44.279,188.227z"/>
</g>
</svg>
